<?xml version="1.0" standalone="no"?>
<!DOCTYPE svg PUBLIC "-//W3C//DTD SVG 20010904//EN"
 "http://www.w3.org/TR/2001/REC-SVG-20010904/DTD/svg10.dtd">
<svg version="1.0" xmlns="http://www.w3.org/2000/svg"
 width="1484.000000pt" height="1484.000000pt" viewBox="0 0 1484.000000 1484.000000"
 preserveAspectRatio="xMidYMid meet">
<metadata>
Created by potrace 1.11, written by Peter Selinger 2001-2013
</metadata>
<g transform="translate(0.000000,1484.000000) scale(0.100000,-0.100000)"
fill="#000000" stroke="none">
<path d="M850 7420 l0 -7420 6575 0 6575 0 0 7420 0 7420 -6575 0 -6575 0 0
-7420z m6930 5030 c0 -5 -4 -10 -9 -10 -6 0 -13 5 -16 10 -3 6 1 10 9 10 9 0
16 -4 16 -10z m-22 -85 c-3 -3 -9 2 -12 12 -6 14 -5 15 5 6 7 -7 10 -15 7 -18z
m-42 -61 c-4 -9 -1 -24 6 -33 11 -15 10 -15 -5 0 -16 13 -15 49 0 49 3 0 2 -7
-1 -16z m143 -43 c9 -6 10 -11 2 -15 -6 -4 -11 -1 -11 6 -1 8 -6 6 -15 -6 -16
-21 -19 -18 -9 8 7 18 13 19 33 7z m-104 -40 c-3 -6 3 -14 12 -20 11 -6 13
-11 5 -11 -9 0 -10 -5 -2 -19 14 -27 13 -29 -14 -27 -23 1 -23 2 -10 28 9 17
10 29 4 33 -10 6 -5 25 6 25 3 0 3 -4 -1 -9z m-26 -20 c9 -6 10 -11 2 -15 -13
-8 -31 1 -31 15 0 11 11 11 29 0z m-3 -73 l29 -31 -32 23 c-18 13 -33 27 -33
32 0 13 5 10 36 -24z m98 -47 c1 -28 5 -51 9 -51 5 0 5 -5 2 -11 -4 -6 -17 3
-31 22 -16 23 -20 35 -13 40 8 4 2 13 -15 24 -15 10 -24 20 -22 23 3 3 13 -1
23 -9 15 -12 16 -12 10 3 -6 18 12 31 27 17 5 -4 9 -31 10 -58z m-78 -16 c18
-13 18 -14 -4 -8 -12 3 -25 9 -28 14 -8 14 10 11 32 -6z m172 -29 c-23 -17
-23 -27 -2 -19 12 4 15 2 12 -8 -3 -8 -13 -14 -24 -14 -10 0 -24 -6 -30 -14
-6 -8 -13 -10 -17 -4 -9 15 -1 48 12 46 6 -2 11 1 11 6 0 5 8 12 18 14 32 8
37 6 20 -7z m40 -16 c-7 -11 -15 -15 -17 -9 -2 6 3 15 10 20 20 12 21 11 7
-11z m-248 -22 c0 -5 -11 -1 -25 8 -14 9 -25 18 -25 20 0 2 11 -2 25 -8 14 -6
25 -15 25 -20z m92 7 c3 3 13 -4 23 -15 10 -11 13 -20 7 -20 -7 0 -12 5 -12
11 0 5 -5 7 -10 4 -12 -8 -40 12 -40 27 0 7 5 6 13 -1 8 -6 16 -9 19 -6z
m-157 -5 c-3 -5 -11 -10 -16 -10 -6 0 -7 5 -4 10 3 6 11 10 16 10 6 0 7 -4 4
-10z m270 -40 c-4 -12 -2 -20 5 -20 6 0 8 -4 5 -10 -9 -15 -25 -12 -25 6 0 8
-4 12 -10 9 -5 -3 -10 -2 -10 4 0 8 26 30 38 31 2 0 0 -9 -3 -20z m-125 -10
c14 -11 21 -20 16 -20 -5 0 -3 -6 3 -14 10 -11 9 -20 -1 -40 -7 -14 -18 -22
-23 -18 -16 11 -42 76 -37 95 4 22 11 21 42 -3z m75 0 c3 -5 3 -15 -1 -21 -6
-11 -23 6 -24 24 0 10 18 9 25 -3z m-225 -16 c0 -2 -7 -4 -15 -4 -8 0 -15 4
-15 10 0 5 7 7 15 4 8 -4 15 -8 15 -10z m253 -24 c3 -11 1 -20 -4 -20 -5 0 -9
9 -9 20 0 11 2 20 4 20 2 0 6 -9 9 -20z m-203 -10 c0 -5 -4 -10 -9 -10 -6 0
-13 5 -16 10 -3 6 1 10 9 10 9 0 16 -4 16 -10z m167 -9 c-9 -12 -9 -13 1 -7
11 7 18 -12 13 -38 -1 -5 7 -6 19 -3 27 7 27 -19 0 -33 -11 -6 -19 -19 -18
-28 2 -9 -2 -16 -9 -15 -7 2 -10 -4 -7 -12 4 -11 -1 -15 -17 -15 -19 0 -21 2
-9 10 13 8 12 10 -3 10 -11 0 -15 4 -11 12 4 6 3 8 -3 5 -6 -4 -18 5 -27 18
-10 14 -22 23 -28 19 -6 -4 -8 -3 -4 4 3 6 23 16 42 22 26 9 33 15 23 21 -11
6 -10 9 4 15 10 4 16 12 13 20 -3 8 2 12 14 11 15 -1 17 -4 7 -16z m117 -6
c-22 -16 -44 -19 -44 -6 0 9 21 18 49 20 10 1 9 -4 -5 -14z m-219 -16 c-4 -5
-1 -9 4 -9 6 0 11 -4 11 -10 0 -16 -27 -11 -34 6 -7 19 2 37 15 28 5 -3 7 -10
4 -15z m160 1 c-3 -5 -12 -10 -18 -10 -7 0 -6 4 3 10 19 12 23 12 15 0z m86
-21 c-13 -14 -27 -20 -40 -16 -11 3 -19 0 -18 -5 1 -6 -4 -13 -10 -15 -7 -3
-13 3 -13 11 0 10 12 19 30 23 17 3 33 10 36 14 3 5 12 9 20 9 11 0 10 -5 -5
-21z m-216 -73 c17 -17 23 -26 13 -23 -10 3 -20 2 -23 -3 -3 -5 4 -10 15 -12
12 -2 20 -7 20 -13 -1 -5 -8 -9 -16 -7 -8 2 -14 -4 -14 -12 0 -12 5 -14 26 -6
32 12 37 12 29 1 -3 -6 4 -15 16 -21 34 -19 8 -35 -32 -21 -18 6 -34 9 -36 7
-2 -2 10 -8 26 -14 17 -6 31 -17 31 -23 0 -10 3 -10 12 -1 14 14 34 -21 54
-93 l13 -50 -6 55 c-3 30 -10 61 -15 68 -6 6 -7 12 -3 12 4 0 2 7 -5 15 -7 9
-10 18 -7 22 4 3 9 -2 13 -11 4 -9 24 -26 45 -37 48 -24 50 -34 7 -25 -29 5
-30 4 -13 -6 11 -6 34 -11 50 -10 21 2 41 -6 63 -24 31 -26 42 -54 22 -54 -6
0 -9 5 -7 11 1 6 -13 13 -31 15 -18 2 -44 11 -58 20 -13 9 -27 14 -30 12 -6
-7 84 -58 102 -58 20 0 50 -54 58 -102 10 -61 16 -41 7 23 l-7 55 34 -11 c48
-17 192 -140 192 -165 0 -6 -4 -8 -10 -5 -5 3 -10 1 -10 -4 0 -6 6 -11 14 -11
8 0 22 -18 32 -40 10 -22 19 -38 21 -36 4 3 -3 23 -32 91 -15 35 -15 38 -1 26
9 -7 16 -20 16 -27 0 -8 6 -14 13 -14 11 0 46 -53 110 -168 16 -29 31 -51 34
-49 2 3 -16 41 -41 86 -36 62 -44 85 -38 102 6 16 11 19 17 10 6 -11 9 -10 17
0 8 11 9 10 5 -2 -3 -9 0 -22 6 -28 15 -15 -6 -14 -22 2 -11 10 -12 9 -6 -3 5
-8 17 -21 27 -28 10 -7 16 -18 13 -23 -4 -5 -1 -17 5 -26 11 -16 11 -16 6 -1
-3 10 -1 20 5 24 6 4 6 11 -2 20 -15 19 -2 18 17 -1 11 -10 12 -15 3 -15 -8 0
-8 -5 3 -17 8 -10 18 -26 21 -35 3 -9 16 -18 29 -20 23 -4 25 -7 13 -43 -6
-19 -6 -19 8 -2 15 18 16 18 33 -7 9 -15 19 -24 22 -22 5 6 82 -69 82 -79 0
-8 82 -85 90 -85 4 0 7 -12 6 -27 -1 -20 4 -27 14 -26 14 2 52 -48 90 -118 8
-16 20 -29 25 -30 6 -2 19 -14 30 -28 10 -14 22 -28 26 -31 13 -11 98 -167
105 -193 5 -21 9 -25 15 -15 6 9 9 3 9 -17 0 -23 3 -27 10 -15 8 12 10 11 10
-5 0 -11 12 -34 28 -51 32 -36 65 -101 57 -115 -4 -5 -1 -9 5 -9 7 0 9 -8 5
-20 -3 -11 -3 -20 2 -20 5 0 9 -8 10 -17 1 -10 4 -28 8 -40 13 -42 -14 -24
-46 30 -16 28 -27 41 -24 27 15 -58 29 -89 38 -83 5 3 6 -5 2 -18 -5 -18 -4
-20 4 -10 8 13 13 11 30 -10 11 -13 20 -30 21 -37 0 -7 5 -10 10 -7 6 3 10 -1
10 -10 0 -11 -5 -15 -16 -11 -8 3 -12 2 -9 -4 3 -6 14 -10 23 -10 15 -1 15 -2
-2 -15 -17 -13 -17 -15 -3 -15 18 0 34 -58 23 -86 -4 -9 0 -27 9 -40 9 -14 11
-25 5 -29 -17 -10 -11 -35 8 -36 10 0 12 -3 5 -6 -15 -6 -17 -43 -3 -43 15 0
12 -47 -2 -53 -8 -3 -6 -6 5 -6 24 -1 22 -17 -3 -17 -15 0 -22 10 -29 41 l-10
40 2 -55 c1 -30 -2 -61 -7 -69 -6 -10 -5 -12 2 -7 14 8 15 4 6 -18 -5 -12 -10
-13 -27 -5 -17 9 -16 5 6 -16 19 -19 26 -33 23 -48 -3 -12 -3 -16 0 -9 5 10 9
9 20 -5 17 -23 19 -52 2 -35 -7 7 -18 12 -25 12 -11 0 -11 -5 -3 -20 15 -28
-1 -26 -56 10 -26 16 -51 27 -56 24 -4 -3 -25 0 -46 7 -20 7 -40 12 -44 11 -4
-1 -33 9 -64 23 -84 37 -100 29 -20 -9 40 -20 84 -34 103 -33 18 1 39 -5 46
-12 10 -12 8 -12 -8 -6 -11 5 -33 8 -50 7 -16 -1 -63 15 -105 35 -41 20 -86
38 -100 39 -40 3 -91 20 -149 49 -29 14 -55 24 -57 22 -2 -2 15 -12 38 -22 40
-18 108 -65 93 -65 -16 0 -131 32 -140 40 -23 17 -73 21 -127 9 -31 -7 -54
-17 -51 -22 6 -10 -100 0 -151 14 -28 8 -29 7 -12 -6 22 -17 16 -20 -55 -29
-27 -3 -50 -1 -57 6 -13 13 -85 1 -76 -13 3 -6 -4 -7 -18 -4 -13 3 -64 -4
-113 -16 -50 -12 -115 -21 -147 -20 -47 2 -58 -1 -58 -13 0 -9 -5 -16 -11 -16
-7 0 -18 -8 -25 -17 -10 -14 -15 -15 -25 -6 -10 10 -10 15 0 27 11 13 9 15
-11 12 -34 -3 -78 -27 -78 -42 0 -11 -23 -33 -89 -86 -20 -17 -21 -17 -21 0 0
11 -5 7 -15 -12 -19 -36 -19 -42 1 -25 13 11 14 9 8 -17 -4 -16 -14 -40 -23
-54 -15 -23 -14 -24 1 -12 9 8 24 35 33 61 11 33 24 52 42 60 43 20 41 12 -16
-55 -5 -7 -7 -15 -4 -18 3 -3 12 2 19 12 8 10 13 12 14 5 0 -7 21 3 47 23 36
28 48 44 49 65 2 27 -1 25 -38 -26 -21 -30 -44 -55 -50 -55 -11 0 -6 8 49 74
21 25 42 40 57 41 25 1 25 1 5 -18 -16 -15 -18 -22 -8 -33 10 -12 8 -18 -7
-29 -10 -8 -23 -15 -28 -15 -5 0 -7 -2 -4 -5 3 -3 -26 -37 -63 -75 -38 -38
-69 -73 -69 -77 0 -3 11 4 24 16 14 13 30 20 36 16 6 -4 22 3 35 15 13 12 29
19 35 15 6 -4 17 0 23 8 7 8 21 17 32 21 16 5 15 2 -6 -16 -15 -13 -29 -31
-33 -41 -3 -10 -28 -28 -56 -41 -45 -21 -48 -24 -26 -28 13 -3 34 1 46 7 13 7
31 10 40 8 9 -3 24 3 33 12 9 9 25 15 34 14 32 -3 41 1 73 28 31 26 70 38 70
22 0 -4 17 -1 38 7 l37 15 -29 -25 -28 -25 33 2 c19 2 43 9 54 16 11 7 13 11
5 8 -8 -2 -26 -8 -40 -12 l-25 -7 23 17 c12 9 19 21 16 27 -4 7 -2 8 5 4 6 -4
18 -2 26 4 8 7 21 10 28 7 7 -3 36 6 63 20 46 23 47 24 14 18 -51 -9 -62 -12
-95 -24 l-30 -11 25 20 c17 13 20 20 10 20 -23 0 40 39 75 45 44 9 85 26 80
34 -5 9 89 6 103 -3 14 -8 103 24 96 35 -3 5 -3 9 0 9 2 0 13 3 23 6 15 5 16
4 3 -5 -20 -15 49 -7 79 9 12 6 45 9 74 7 l52 -3 -59 -2 c-33 -1 -56 -5 -52
-9 11 -11 166 -12 160 -1 -3 4 2 8 10 8 10 0 13 -6 10 -15 -4 -9 -21 -16 -43
-17 -20 0 -40 -2 -46 -3 -5 -2 -17 -3 -25 -4 -13 -1 -13 -2 0 -11 12 -8 11
-10 -7 -10 -12 0 -25 -5 -28 -11 -14 -21 5 -21 50 1 46 22 165 37 165 20 0 -5
-8 -11 -17 -13 -10 -3 18 -6 62 -7 l80 -2 -70 -18 c-88 -22 -74 -25 30 -4 44
8 89 15 100 15 69 -2 70 -2 23 -19 -26 -9 -50 -21 -55 -26 -4 -5 -4 -7 2 -4
17 10 87 19 82 11 -3 -5 16 -8 41 -7 29 1 35 0 15 -3 -46 -6 -41 -20 5 -16 32
2 33 1 12 -6 -21 -8 -17 -9 25 -10 l50 -2 -30 -15 -30 -14 30 4 c17 3 37 7 46
11 10 4 19 0 23 -11 5 -12 2 -15 -12 -12 -11 3 -23 -2 -30 -13 -11 -17 -10
-18 15 -8 19 7 39 6 70 -3 l44 -13 -48 -17 c-34 -13 -39 -16 -16 -12 60 10 98
-16 51 -36 -17 -7 -7 -8 32 -4 40 4 51 3 40 -5 -11 -8 -12 -11 -2 -11 10 0 12
-10 9 -36 -4 -29 -2 -37 13 -41 15 -4 17 -10 10 -33 -12 -41 2 -48 16 -8 7 18
13 25 13 16 1 -26 21 -22 22 5 0 20 2 19 11 -6 8 -22 15 -27 31 -22 12 2 16 2
9 -1 -6 -3 -10 -10 -6 -15 3 -5 -5 -5 -19 0 -14 6 -28 7 -32 3 -3 -3 -10 0
-14 7 -6 9 -8 5 -8 -13 0 -26 11 -34 22 -16 11 18 26 10 20 -10 -7 -21 10 -29
18 -7 2 6 8 9 12 5 8 -8 -12 -32 -35 -41 -8 -3 1 -6 21 -6 35 -1 35 -1 52 -68
9 -38 19 -87 22 -110 4 -24 11 -45 16 -49 5 -3 9 -23 9 -45 0 -21 4 -39 9 -39
5 0 12 -25 16 -55 3 -30 10 -57 15 -60 4 -2 11 -26 15 -52 3 -27 15 -79 27
-117 11 -38 20 -89 21 -112 0 -24 4 -41 9 -38 4 3 8 -8 8 -24 0 -16 3 -44 7
-62 4 -20 2 -31 -4 -27 -5 3 -10 -19 -10 -56 -2 -77 -1 -75 -13 -57 -7 11 -10
3 -10 -28 0 -30 4 -41 11 -36 9 5 10 -1 4 -22 -10 -39 -15 -86 -16 -167 -1
-37 -6 -70 -10 -73 -5 -3 -9 -21 -9 -40 0 -28 -4 -34 -22 -35 l-23 -2 23 -4
c22 -4 32 -23 12 -23 -14 0 -8 -22 10 -38 13 -11 11 -13 -13 -9 -33 5 -46 -15
-27 -38 10 -12 10 -15 -2 -15 -10 0 -14 -11 -14 -32 0 -18 -3 -47 -7 -65 -7
-26 -5 -32 10 -36 16 -4 15 -6 -4 -12 -13 -4 -20 -11 -17 -16 3 -5 -4 -9 -15
-9 -23 0 -37 -16 -19 -23 10 -3 10 -7 1 -17 -6 -7 -9 -19 -6 -26 3 -9 -2 -14
-16 -14 -18 0 -21 -6 -21 -41 0 -24 -4 -38 -10 -34 -6 4 -6 -4 0 -21 10 -27 1
-43 -23 -44 -5 0 -5 -9 -2 -20 4 -11 2 -20 -4 -20 -6 0 -11 -7 -11 -15 0 -8
-4 -15 -9 -15 -5 0 -8 -8 -7 -17 0 -10 -7 -18 -19 -20 l-20 -3 20 9 c19 9 19
10 -2 10 -27 1 -29 -11 -8 -33 14 -14 14 -18 0 -40 -17 -26 -41 -39 -56 -31
-5 4 -6 -1 -2 -10 3 -10 0 -21 -8 -27 -11 -8 -11 -11 -1 -15 10 -4 10 -8 2
-18 -9 -10 -19 -11 -38 -4 -25 8 -26 8 -8 -6 17 -13 18 -15 2 -21 -16 -6 -16
-7 0 -19 12 -8 14 -14 5 -19 -6 -4 -9 -12 -6 -17 4 -5 -6 -9 -22 -8 -25 0 -26
1 -8 9 19 8 19 9 -3 9 -34 1 -22 -23 14 -28 l29 -4 -30 -6 c-26 -6 -30 -11
-28 -39 1 -31 0 -32 -14 -15 -8 10 -12 13 -8 6 3 -7 -2 -27 -11 -45 -11 -22
-13 -33 -5 -36 6 -2 2 -11 -11 -22 -19 -15 -21 -21 -11 -43 10 -22 9 -27 -10
-41 l-22 -15 24 0 24 -1 -26 -20 c-14 -11 -30 -20 -36 -20 -6 0 -11 -9 -11
-20 0 -11 5 -20 11 -20 6 0 9 7 5 15 -3 9 0 15 9 15 8 0 15 -2 15 -4 0 -2 3
-13 6 -23 5 -15 4 -15 -5 -3 -9 12 -11 9 -11 -15 0 -22 -3 -26 -12 -17 -15 15
-48 16 -48 2 0 -5 10 -10 23 -10 12 0 27 -4 32 -8 13 -9 17 -72 5 -72 -6 0
-10 -11 -10 -25 0 -17 6 -25 18 -25 16 -1 16 -2 -2 -15 -11 -9 -16 -20 -12
-30 4 -12 0 -19 -14 -22 -22 -6 -23 -9 -10 -38 7 -17 9 -17 9 -2 1 18 31 25
31 7 0 -5 -5 -10 -11 -10 -8 0 -8 -5 1 -15 10 -13 9 -15 -9 -15 -23 0 -26 -7
-12 -29 6 -9 11 -10 15 -2 10 16 36 14 36 -3 0 -8 6 -16 13 -19 9 -3 8 -12 -5
-36 -10 -19 -13 -33 -7 -37 6 -4 6 -11 -2 -20 -6 -8 -9 -18 -5 -21 10 -11 26
19 21 38 -8 25 19 43 35 24 10 -12 10 -15 0 -15 -7 0 -10 -7 -6 -15 6 -16 -12
-65 -25 -65 -4 0 -5 -9 -2 -19 3 -11 -2 -34 -11 -52 -20 -41 -20 -42 4 -36 11
3 20 1 20 -4 0 -4 -9 -13 -20 -19 -11 -6 -20 -17 -20 -25 0 -8 -8 -19 -17 -24
-16 -9 -16 -12 -3 -22 13 -9 13 -10 -2 -6 -22 7 -30 -3 -17 -20 8 -9 8 -13 1
-13 -6 0 -16 -10 -23 -21 -9 -17 -8 -23 2 -30 10 -6 8 -9 -9 -9 -21 0 -23 -3
-17 -30 6 -26 4 -29 -14 -25 -14 2 -21 -1 -21 -11 0 -8 4 -13 9 -9 5 3 12 1
15 -4 9 -14 -4 -41 -19 -41 -14 0 -25 -22 -25 -50 0 -19 -30 -82 -30 -65 0 6
-5 2 -11 -8 -6 -9 -15 -15 -20 -11 -6 3 -13 -3 -16 -15 -3 -12 -9 -21 -14 -21
-5 0 -6 -6 -3 -14 3 -8 -4 -16 -18 -20 -17 -4 -20 -8 -10 -15 10 -6 5 -11 -17
-21 -34 -14 -37 -20 -19 -38 9 -9 7 -12 -10 -12 -12 0 -22 -4 -22 -8 0 -5 -18
-27 -41 -50 -22 -23 -41 -51 -42 -63 -1 -12 -13 -27 -29 -35 -15 -8 -32 -23
-38 -34 -6 -11 -15 -20 -20 -20 -5 0 -21 -11 -36 -25 -14 -13 -31 -22 -37 -18
-6 4 -8 0 -4 -11 6 -14 3 -15 -14 -5 -11 6 -23 8 -27 5 -3 -3 -1 -6 5 -6 6 0
13 -7 16 -14 4 -10 1 -13 -9 -9 -14 5 -20 -12 -6 -20 4 -2 1 -2 -7 0 -7 2 -20
-2 -27 -8 -8 -6 -14 -8 -14 -4 0 4 -16 -7 -35 -24 -20 -17 -45 -31 -56 -31
-11 0 -22 -7 -25 -15 -4 -8 -14 -15 -24 -15 -10 0 -20 -7 -24 -15 -3 -8 -14
-15 -25 -15 -11 0 -27 -10 -35 -22 -10 -14 -16 -17 -16 -8 0 9 -8 6 -24 -9
-15 -14 -30 -20 -37 -16 -8 6 -10 4 -4 -5 6 -10 4 -12 -8 -7 -9 3 -19 2 -22
-2 -3 -5 -13 -7 -24 -4 -11 3 -29 -6 -46 -21 -15 -14 -34 -26 -42 -26 -7 0
-16 -7 -19 -15 -4 -8 -12 -15 -20 -15 -24 0 -64 -23 -64 -37 0 -7 -8 -13 -19
-13 -10 0 -24 -7 -31 -15 -7 -8 -17 -15 -22 -15 -6 0 -32 -16 -58 -35 -26 -19
-51 -35 -55 -35 -5 0 -20 -13 -34 -29 -23 -25 -72 -47 -94 -43 -4 1 -10 -5
-13 -13 -7 -17 -124 -76 -159 -80 -5 -1 -19 -4 -30 -8 -11 -4 -40 -9 -65 -12
-25 -3 -46 -10 -48 -15 -2 -6 -18 -10 -35 -10 -18 0 -52 -5 -77 -11 -25 -6
-61 -12 -80 -14 -19 -2 -46 -7 -60 -10 -40 -11 -74 -12 -87 -2 -8 5 -37 6 -70
2 -77 -11 -233 -12 -233 -2 0 4 -9 2 -19 -5 -15 -9 -35 -8 -93 4 -55 12 -76
13 -87 4 -10 -7 -13 -7 -8 0 4 7 -7 11 -31 12 -49 2 -131 22 -138 33 -4 6 -11
6 -19 -1 -9 -7 -20 -6 -41 5 -16 8 -36 15 -45 15 -17 0 -50 13 -127 52 -30 16
-58 28 -64 28 -5 0 -21 9 -35 20 -14 11 -35 20 -47 20 -12 0 -38 9 -59 20 -20
11 -46 20 -57 20 -11 0 -20 4 -20 10 0 5 -6 8 -12 6 -7 -1 -10 -1 -5 1 13 8 7
23 -9 23 -18 0 -93 75 -114 114 -7 14 -23 33 -36 41 -20 13 -26 13 -51 0 -36
-19 -43 -19 -43 1 0 11 6 15 20 11 30 -8 35 11 8 33 -30 25 -41 25 -33 0 3
-11 2 -20 -3 -20 -5 0 -12 9 -15 19 -4 16 -11 19 -46 14 -31 -4 -41 -2 -39 7
2 7 -3 15 -11 18 -8 3 -11 0 -7 -7 4 -6 2 -11 -4 -11 -6 0 -10 8 -8 17 2 14
-5 18 -36 20 -39 2 -60 18 -49 36 4 6 -5 7 -20 3 -14 -3 -29 -2 -32 4 -3 5 1
10 9 10 9 0 16 4 16 8 0 15 -22 30 -36 25 -8 -3 -14 1 -14 8 0 13 -42 39 -64
39 -6 0 -24 12 -39 25 -23 21 -26 28 -17 45 13 24 7 26 -14 5 -22 -23 -47 -8
-39 23 4 16 2 23 -5 18 -6 -3 -20 6 -31 20 -23 30 -28 49 -8 38 6 -4 -9 14
-36 40 -26 26 -52 44 -57 41 -6 -3 -10 -1 -10 4 0 6 -6 11 -14 11 -7 0 -16 11
-18 25 -3 14 -1 25 3 25 16 0 9 15 -12 29 -14 8 -24 9 -28 3 -3 -6 -17 5 -31
24 -14 18 -34 34 -44 34 -20 0 -20 0 0 15 19 15 19 15 -3 34 -12 10 -19 21
-16 25 4 3 -3 20 -16 36 -14 20 -17 30 -9 30 8 1 7 5 -4 14 -10 7 -15 16 -11
19 3 4 -6 19 -20 33 -15 15 -27 31 -27 36 0 6 -9 22 -19 37 -13 18 -18 36 -14
51 5 19 3 22 -11 17 -9 -4 -15 -3 -11 3 3 5 -6 20 -21 33 -17 16 -22 27 -15
31 17 11 13 23 -10 29 -12 3 -18 10 -15 16 4 6 -5 13 -19 17 -23 6 -24 8 -9
19 9 6 14 17 10 23 -4 7 -1 12 8 12 13 0 13 4 0 30 -19 37 -27 39 -14 5 10
-25 9 -26 -13 -9 -19 15 -33 69 -15 58 5 -3 16 0 25 5 15 9 14 10 -11 11 -29
0 -29 0 -23 50 5 40 3 50 -8 50 -8 0 -15 5 -15 10 0 14 12 12 38 -5 22 -16 22
-16 18 30 -4 33 -1 45 9 45 7 0 20 3 29 6 11 4 16 1 16 -11 0 -11 -5 -15 -14
-12 -9 4 -16 -3 -20 -16 -7 -26 0 -35 16 -19 16 16 28 15 28 -3 0 -9 6 -18 14
-21 8 -3 12 -12 10 -19 -3 -7 -1 -16 5 -19 6 -4 13 5 17 20 7 27 -10 49 -30
37 -5 -4 -7 1 -3 10 3 10 2 17 -3 17 -15 0 -12 47 3 54 6 3 0 4 -15 2 -22 -2
-28 1 -28 17 0 14 -5 18 -20 14 -16 -4 -18 -2 -11 12 12 22 -2 46 -23 38 -9
-4 -16 -2 -16 3 0 6 8 10 19 10 21 0 36 48 20 65 -5 5 -9 1 -9 -13 0 -29 -20
-29 -21 1 0 20 -1 20 -8 3 -7 -19 -13 -16 -24 15 -3 10 0 16 6 15 7 0 14 4 17
9 3 6 -7 11 -22 13 -24 3 -28 8 -28 33 0 16 -7 41 -16 54 -9 14 -13 25 -9 25
4 0 2 7 -5 15 -10 12 -10 15 4 15 9 0 16 5 16 11 0 6 -7 8 -16 5 -13 -5 -15 0
-12 33 3 31 1 37 -9 29 -9 -7 -13 -7 -13 1 0 7 -4 10 -8 7 -4 -2 -8 4 -8 14 0
10 4 16 8 14 4 -3 8 -1 8 4 0 6 -8 13 -17 17 -17 7 -17 8 1 14 17 7 17 8 2 23
-9 9 -16 24 -16 32 0 9 -4 16 -9 16 -5 0 -7 39 -5 88 2 48 4 102 4 121 -1 18
4 39 10 47 7 7 9 21 6 31 -3 10 0 30 8 45 14 26 15 75 3 95 -3 5 2 15 12 22
19 14 17 61 -2 61 -6 0 -1 7 11 16 17 12 20 19 12 29 -8 9 -6 17 6 29 9 10 13
24 9 33 -5 14 11 59 33 93 2 2 8 -2 13 -10 7 -11 9 -3 5 27 -3 24 -1 53 5 65
10 23 10 23 5 -1 -3 -16 -2 -21 5 -14 12 12 -8 103 -23 103 -5 0 -6 5 -2 12 5
8 12 3 19 -16 l12 -29 12 33 c14 42 14 47 -3 47 -8 0 -12 -8 -9 -21 4 -19 3
-19 -7 -4 -13 21 -3 70 14 61 6 -3 6 -1 -1 8 -7 7 -13 26 -13 41 0 43 23 109
37 104 8 -4 8 4 -2 27 -17 41 -9 94 15 100 10 3 20 15 23 28 2 13 3 -21 1 -76
-4 -89 -11 -147 -26 -195 -3 -8 -3 -12 -1 -7 3 4 8 5 12 3 4 -3 7 3 7 12 1 9
7 48 13 87 7 38 11 83 11 100 -1 16 -1 55 -1 85 2 55 2 55 16 25 l13 -30 1 51
c1 79 13 174 21 174 5 0 6 -10 4 -22 -3 -14 2 -9 12 11 12 28 18 32 26 20 7
-10 8 -2 5 29 -3 24 -1 40 4 36 5 -3 9 6 9 20 0 14 6 29 13 33 8 4 28 27 45
51 l31 44 10 -34 c10 -32 10 -31 5 10 -5 34 -3 42 10 42 10 0 13 6 9 18 -6 14
-4 15 9 4 13 -10 16 -9 21 8 4 14 10 18 23 13 11 -4 15 -3 11 4 -4 6 -1 14 5
16 7 3 -2 6 -19 6 -19 1 -33 6 -34 14 0 9 -2 9 -6 -1 -2 -6 -9 -10 -14 -6 -14
8 -11 24 5 24 8 0 18 9 21 20 4 13 15 20 32 20 20 0 23 3 14 13 -6 8 -8 17 -4
21 4 3 6 24 5 46 -2 22 3 50 10 62 7 13 11 27 10 31 -1 5 1 6 6 3 5 -3 24 10
42 29 19 19 39 35 45 35 7 0 12 -22 13 -57 2 -86 28 -150 82 -204 51 -51 75
-59 133 -44 27 6 43 6 56 -2 21 -13 94 -6 85 8 -3 5 9 9 26 9 77 0 160 164
130 255 -11 32 -10 38 7 50 24 19 33 18 33 0 0 -9 9 -15 25 -15 14 0 28 -7 31
-15 3 -8 15 -17 27 -21 12 -4 26 -12 33 -18 31 -30 65 -56 73 -56 5 0 11 -4
13 -10 2 -5 14 -11 28 -13 18 -3 27 -13 34 -38 12 -44 13 -44 31 -29 8 7 15 8
15 2 0 -5 14 -12 30 -15 34 -7 39 -23 10 -32 -11 -3 -20 -13 -20 -20 0 -9 6
-12 18 -8 26 9 42 24 42 38 0 25 -166 177 -226 205 -32 16 -61 27 -64 25 -4
-2 -26 14 -50 35 -27 24 -47 35 -51 29 -3 -6 -9 1 -13 16 -9 35 8 55 23 27 13
-24 43 -38 34 -17 -4 13 -2 13 23 0 15 -7 31 -12 36 -9 4 3 8 0 8 -6 0 -6 4
-8 10 -5 5 3 23 -1 40 -10 16 -8 31 -14 32 -13 2 1 30 -16 63 -37 116 -76 145
-93 128 -75 -9 10 -7 17 12 32 14 11 29 17 35 13 6 -3 7 1 4 10 -4 8 -18 18
-33 21 -14 4 -33 12 -41 19 -52 41 -179 104 -199 97 -9 -3 -11 0 -6 7 4 8 2
11 -6 10 -8 -1 -21 0 -29 4 -85 33 -222 46 -348 33 -26 -3 -81 -8 -122 -11
-101 -8 -250 -33 -319 -52 -31 -8 -79 -21 -107 -28 -28 -7 -60 -17 -71 -24
-16 -8 -23 -8 -26 2 -4 9 -8 9 -15 -2 -7 -10 -11 -10 -17 -1 -4 7 -2 16 5 20
9 5 9 9 1 14 -6 4 -9 12 -6 17 4 5 1 9 -4 9 -6 0 -11 5 -11 11 0 5 5 7 10 4
17 -10 11 35 -7 53 -16 16 -15 17 5 20 27 4 28 10 5 28 -17 13 -17 14 1 7 16
-5 18 -3 13 11 -5 13 -1 19 14 23 16 4 18 8 7 14 -11 7 -10 11 2 19 12 8 13
10 1 10 -8 0 -12 3 -8 6 3 3 47 7 98 10 94 4 133 13 63 15 -21 1 -50 5 -64 9
-25 8 -25 8 5 11 40 3 50 2 81 -5 15 -4 23 -3 20 3 -4 5 -2 12 4 16 6 4 8 11
5 16 -4 5 8 9 26 9 27 0 30 2 19 15 -11 14 -10 14 15 5 15 -6 43 -7 63 -4 25
5 33 4 28 -5 -4 -7 0 -11 11 -11 11 0 28 -7 39 -15 18 -15 16 -16 -31 -14 -27
1 -66 1 -85 -1 l-35 -2 30 -9 c17 -5 80 -11 141 -13 61 -2 119 -8 130 -14 11
-5 28 -6 39 -1 19 7 19 8 -2 8 -28 1 -53 11 -53 22 0 4 7 5 17 2 11 -4 14 -3
9 5 -4 7 -4 12 -1 12 19 0 102 -24 110 -32 7 -7 1 -8 -15 -3 -19 5 -21 4 -10
-4 8 -6 25 -11 38 -11 13 0 21 -3 19 -7 -3 -5 8 -9 24 -10 15 -1 48 -11 72
-22 24 -11 59 -19 78 -19 19 1 67 -2 107 -5 40 -3 83 -2 95 3 18 7 15 9 -18
10 -32 0 -37 3 -22 11 9 5 21 8 26 4 5 -3 13 0 17 6 4 7 3 9 -2 6 -6 -3 -16
-2 -22 2 -10 6 -9 11 5 22 10 7 15 10 11 5 -8 -10 57 -68 95 -84 34 -15 37
-15 37 -2 0 5 -16 16 -35 24 -35 15 -50 31 -17 19 15 -6 15 -5 3 10 -12 15
-11 17 5 17 16 0 15 3 -7 23 -15 12 -29 30 -32 40 -4 9 -10 17 -14 16 -4 -1
-15 -1 -23 1 -11 1 -9 4 5 10 17 7 17 9 3 9 -10 1 -18 5 -18 9 0 4 -14 12 -32
17 -17 6 -34 16 -36 24 -3 9 0 11 9 6 8 -5 6 0 -4 12 -9 11 -15 23 -12 26 3 4
0 3 -7 -2 -7 -7 -18 -6 -32 1 -12 7 -34 12 -51 13 -16 1 -47 2 -68 3 -26 1
-36 6 -31 14 4 6 3 8 -3 5 -6 -4 -24 0 -39 8 -16 8 -36 15 -45 15 -9 0 -27 8
-40 19 -16 12 -30 16 -44 10 -19 -7 -19 -8 3 -8 31 -1 19 -18 -19 -26 -20 -5
-38 -1 -55 10 -25 16 -40 16 -98 -2 -12 -3 -16 -1 -12 6 9 14 -14 14 -48 1
-22 -8 -26 -7 -26 8 0 14 -2 15 -9 2 -6 -8 -8 -17 -5 -21 2 -4 -5 -5 -17 -2
-16 4 -17 8 -7 14 20 13 0 11 -59 -8 -35 -11 -49 -20 -41 -25 7 -4 -3 -5 -22
-1 -53 11 -160 5 -160 -9 0 -4 -9 -8 -19 -8 -24 0 -22 25 5 46 18 15 18 15 -3
5 -29 -14 -40 -14 -25 1 18 18 15 28 -9 28 -14 0 -18 4 -12 13 7 11 11 43 16
132 1 22 8 50 14 61 7 12 10 24 6 27 -3 4 -1 13 6 21 6 8 14 37 18 65 3 28 10
51 14 51 5 0 9 10 9 23 0 12 7 33 16 45 8 12 13 26 9 31 -3 5 1 15 8 23 18 18
27 66 13 72 -6 2 -4 5 4 5 11 1 15 11 14 35 -1 19 4 45 11 59 7 13 15 37 18
53 3 16 10 49 16 73 7 24 9 52 6 62 -4 11 -2 19 5 19 7 0 10 7 6 15 -3 8 4 21
17 30 19 13 19 15 3 15 -14 0 -16 3 -7 13 6 8 8 17 4 20 -3 4 0 14 7 23 11 13
11 17 0 24 -8 5 -10 14 -5 26 5 11 7 23 6 27 -3 16 34 67 46 63 7 -3 10 1 6
10 -3 7 0 14 7 14 6 0 9 4 5 9 -5 9 41 84 112 183 14 20 31 34 36 31 6 -3 7
-1 3 5 -4 6 8 28 27 49 30 35 49 61 126 176 14 21 31 35 37 33 8 -3 11 1 8 9
-5 12 18 26 40 24 5 0 12 3 15 8 27 38 307 208 286 173 -9 -14 32 -4 53 13 9
7 11 5 6 -9 -7 -18 -6 -18 17 1 13 11 26 23 29 26 9 11 72 41 76 36 3 -3 -8
-13 -24 -23 -92 -60 -140 -95 -162 -120 l-25 -29 25 21 c46 37 226 154 238
154 7 0 12 5 12 11 0 5 26 22 58 36 46 21 76 26 157 29 l100 4 -70 -25 c-38
-14 -71 -25 -72 -25 -2 0 -3 -4 -3 -8 0 -5 37 4 83 20 91 31 101 33 92 17 -4
-5 10 -3 30 5 21 9 52 16 69 17 34 0 82 17 56 19 -39 3 43 21 103 23 38 0 71
5 73 9 3 4 18 8 35 8 27 0 44 20 17 20 -7 0 -5 5 6 11 10 6 35 8 56 5 43 -7
70 0 70 18 0 7 25 19 55 26 30 7 53 15 51 18 -5 4 138 83 158 86 6 1 27 12 46
24 19 12 43 22 53 22 10 0 15 5 12 10 -4 6 -3 10 2 9 15 -3 73 13 79 22 4 8
-19 6 -78 -6 -10 -2 -18 0 -18 4 0 8 73 31 100 31 11 0 20 4 20 8 0 8 30 19
98 37 14 4 22 2 22 -6 0 -10 3 -10 12 -1 16 16 41 15 35 -1 -3 -8 -1 -20 4
-28 7 -11 9 -11 9 4 0 11 8 17 25 17 17 0 23 4 19 15 -4 9 1 18 12 22 11 4 25
13 32 20 11 11 10 13 -8 13 -12 0 -28 -7 -36 -15 -9 -8 -20 -15 -25 -15 -15 0
-10 30 6 36 8 4 15 10 15 15 0 4 -13 1 -29 -9 -16 -9 -27 -22 -24 -29 4 -9 -3
-12 -21 -11 -27 2 -37 28 -12 28 8 0 18 5 21 10 4 6 3 10 -2 9 -20 -3 -25 2
-13 16 17 20 102 21 94 1 -3 -8 -1 -17 4 -20 6 -3 13 1 16 10 3 8 14 14 25 12
10 -2 28 5 39 15 16 15 25 16 41 8 11 -6 26 -11 33 -11 7 1 2 7 -11 14 -24 13
-24 13 22 31 25 9 51 14 59 10 7 -3 6 -1 -3 7 -9 7 -14 19 -11 27 3 10 10 7
26 -10 11 -13 35 -37 51 -53z m-330 36 c-3 -3 -11 0 -18 7 -9 10 -8 11 6 5 10
-3 15 -9 12 -12z m140 8 c3 -5 2 -10 -4 -10 -5 0 -13 5 -16 10 -3 6 -2 10 4
10 5 0 13 -4 16 -10z m80 1 c-6 -5 -21 -12 -34 -16 -21 -6 -22 -5 -10 8 8 9
23 16 34 17 11 0 15 -3 10 -9z m285 -33 c0 -4 -6 -8 -14 -8 -8 0 -22 -3 -30
-6 -11 -4 -15 -2 -11 8 6 15 55 20 55 6z m-413 -4 c-3 -3 -12 -4 -19 -1 -8 3
-5 6 6 6 11 1 17 -2 13 -5z m-157 -45 c-16 -31 -26 -40 -42 -37 -30 4 -35 28
-6 29 l23 0 -22 9 c-26 11 -28 16 -11 26 7 4 8 3 4 -4 -9 -15 -5 -15 35 3 19
8 35 14 37 15 1 0 -7 -18 -18 -41z m125 26 l30 -14 -30 6 c-16 3 -39 10 -50
14 l-20 8 20 0 c11 0 34 -6 50 -14z m-255 -5 c-12 -7 -8 -11 18 -16 19 -4 32
-13 32 -21 0 -13 -3 -14 -22 -1 -13 8 -29 18 -36 22 -14 8 -7 26 11 26 7 0 6
-4 -3 -10z m40 0 c0 -5 -5 -10 -11 -10 -5 0 -7 5 -4 10 3 6 8 10 11 10 2 0 4
-4 4 -10z m670 -5 c-7 -8 -18 -15 -25 -15 -7 0 -16 -7 -19 -16 -4 -11 -2 -15
8 -11 8 3 20 -1 26 -8 7 -8 17 -12 22 -9 6 4 4 11 -6 16 -9 5 -14 13 -11 19 8
12 52 12 60 -1 4 -6 10 -8 15 -5 5 3 14 -4 20 -15 10 -18 8 -20 -20 -20 -34 0
-32 -16 4 -30 20 -9 20 -9 1 -9 -12 -1 -26 4 -33 11 -6 6 -28 12 -49 13 -43 3
-88 18 -98 34 -10 18 21 41 67 50 24 5 45 9 47 10 2 1 -2 -6 -9 -14z m-866 -3
c3 -5 -16 -9 -42 -9 -45 -1 -45 0 -12 7 19 4 38 8 42 9 4 0 9 -3 12 -7z m96
-27 c-7 -9 -21 -13 -31 -10 -11 4 -19 2 -19 -4 0 -5 7 -11 15 -13 10 -2 7 -6
-9 -14 -21 -10 -24 -9 -19 5 5 13 3 14 -8 4 -14 -14 -33 -18 -25 -5 2 4 -10 6
-29 4 -18 -2 -36 1 -40 8 -4 7 -1 10 6 9 8 -1 25 2 39 8 14 5 43 11 64 11 22
1 44 6 50 12 15 15 21 3 6 -15z m-157 -2 c-7 -2 -21 -2 -30 0 -10 3 -4 5 12 5
17 0 24 -2 18 -5z m234 -26 c4 -6 -4 -8 -20 -5 -15 3 -24 1 -21 -3 3 -5 -6 -9
-20 -9 -27 0 -33 9 -16 26 12 12 68 6 77 -9z m-436 4 c-8 -5 -20 -7 -28 -4
-21 8 -15 13 15 13 20 0 23 -3 13 -9z m214 -31 c-4 -6 -11 -8 -16 -5 -5 4 -10
0 -11 -7 0 -7 -2 -17 -2 -23 -3 -21 -19 -36 -32 -31 -7 3 -16 1 -19 -4 -11
-18 -35 -11 -28 8 6 15 5 15 -10 3 -20 -16 -77 -25 -77 -12 0 11 81 47 99 43
12 -3 13 -1 3 11 -11 13 -8 14 23 7 30 -7 35 -6 31 6 -4 10 2 14 20 14 14 0
23 -4 19 -10z m293 1 c11 -7 11 -9 -2 -14 -9 -4 -16 -1 -16 5 0 7 -6 5 -12 -4
-11 -14 -95 -49 -116 -48 -4 1 7 12 23 26 l30 25 -40 -7 c-28 -4 -37 -3 -30 4
18 18 140 28 163 13z m612 -16 c18 -3 40 -10 49 -16 12 -8 11 -8 -7 -3 -13 3
-35 7 -49 9 -13 1 -30 8 -36 15 -7 7 -7 10 -1 7 6 -3 26 -9 44 -12z m-820 -10
c-11 -13 -10 -14 6 -9 15 6 17 4 7 -6 -12 -13 -43 -7 -43 9 0 5 8 12 18 14 9
3 19 5 21 6 2 0 -2 -6 -9 -14z m-43 -1 c-3 -3 -12 -4 -19 -1 -8 3 -5 6 6 6 11
1 17 -2 13 -5z m1043 -4 c0 -5 -9 -10 -19 -10 -11 0 -23 5 -26 10 -4 6 5 10
19 10 14 0 26 -4 26 -10z m-1286 -14 c-10 -8 -21 -12 -24 -10 -5 6 21 24 34
24 6 0 1 -6 -10 -14z m306 -25 c0 -10 -42 -27 -87 -35 -18 -3 -53 -15 -77 -26
-25 -11 -51 -20 -58 -20 -17 1 37 25 132 60 87 32 90 33 90 21z m-320 -21 c0
-5 -10 -10 -22 -9 -22 0 -22 1 -3 9 11 5 21 9 23 9 1 1 2 -3 2 -9z m1187 4
c-3 -3 -12 -4 -19 -1 -8 3 -5 6 6 6 11 1 17 -2 13 -5z m133 -10 c0 -2 -7 -4
-15 -4 -8 0 -15 4 -15 10 0 5 7 7 15 4 8 -4 15 -8 15 -10z m-1034 -31 c-2 -2
-10 -6 -18 -7 -7 -1 -23 -7 -35 -14 -12 -7 -32 -11 -45 -11 l-23 2 23 4 c12 2
20 8 17 13 -3 4 5 6 17 2 13 -3 19 -1 15 6 -4 5 -1 12 5 15 15 4 51 -3 44 -10z
m1010 -71 c-9 -8 -46 20 -46 35 0 13 5 12 25 -7 14 -13 23 -25 21 -28z m42 -2
c-2 -7 -11 -4 -27 9 -13 11 -20 25 -16 31 9 15 49 -22 43 -40z m-1188 10 c-8
-5 -22 -9 -30 -9 -10 0 -8 3 5 9 27 12 43 12 25 0z m-137 -7 c-7 -2 -21 -2
-30 0 -10 3 -4 5 12 5 17 0 24 -2 18 -5z m1491 -38 c21 -19 35 -36 32 -36 -3
-1 -11 -2 -16 -3 -6 0 -15 -8 -20 -16 -8 -13 -11 -12 -24 5 -21 27 -20 33 7
38 19 4 18 4 -5 6 -16 0 -32 9 -38 21 -18 34 22 25 64 -15z m-1434 16 c-8 -5
-35 -12 -60 -15 -25 -3 -61 -8 -80 -12 -27 -4 -32 -3 -23 6 10 11 61 20 153
27 19 2 21 0 10 -6z m1350 -1 c0 -5 -4 -10 -10 -10 -5 0 -10 -5 -10 -11 0 -6
7 -8 17 -5 10 4 14 4 11 0 -4 -4 -3 -15 3 -25 7 -15 6 -17 -5 -13 -27 10 -44
74 -20 74 8 0 14 -4 14 -10z m-1650 -20 c-14 -4 -34 -8 -45 -8 l-20 -1 20 9
c11 5 31 8 45 8 l25 0 -25 -8z m53 -17 c-7 -2 -19 -2 -25 0 -7 3 -2 5 12 5 14
0 19 -2 13 -5z m192 -3 c-11 -5 -27 -9 -35 -9 -9 0 -8 4 5 9 11 5 27 9 35 9 9
0 8 -4 -5 -9z m-108 -16 c-3 -3 -12 -4 -19 -1 -8 3 -5 6 6 6 11 1 17 -2 13 -5z
m33 -14 c-34 -11 -60 -11 -35 0 11 5 29 8 40 8 16 0 15 -2 -5 -8z m1622 -24
c15 -16 28 -35 28 -42 0 -7 8 -18 18 -23 9 -6 12 -11 6 -11 -6 0 -19 9 -29 20
-9 10 -27 18 -39 17 -13 -1 -21 4 -21 13 0 8 -5 18 -12 23 -14 9 -6 37 9 34 6
-1 24 -15 40 -31z m18 24 c0 -5 -2 -10 -4 -10 -3 0 -8 5 -11 10 -3 6 -1 10 4
10 6 0 11 -4 11 -10z m-6 -102 c-3 -5 -12 -4 -20 3 -19 16 -18 18 6 12 11 -3
17 -9 14 -15z m-2144 -11 c0 -5 8 -3 17 4 11 9 14 10 9 2 -5 -9 2 -11 26 -8
26 4 29 3 13 -4 -23 -11 -99 -14 -134 -4 -20 5 -22 7 -8 12 28 10 77 9 77 -2z
m2160 -23 c0 -8 -4 -12 -10 -9 -5 3 -10 10 -10 16 0 5 5 9 10 9 6 0 10 -7 10
-16z m-2560 -29 c0 -2 -13 -11 -30 -20 -38 -19 -40 -11 -2 9 31 17 32 18 32
11z m-677 -420 c-3 -9 -8 -14 -10 -11 -3 3 -2 9 2 15 9 16 15 13 8 -4z m3721
-34 c-6 -6 -24 19 -24 34 1 6 7 1 15 -9 8 -11 12 -22 9 -25z m-3754 9 c-6 -11
-15 -20 -20 -20 -6 0 -2 9 7 20 10 11 19 20 21 20 1 0 -2 -9 -8 -20z m44 -17
c-4 -16 -17 -38 -28 -50 -12 -12 -32 -36 -45 -53 -13 -17 -26 -29 -29 -26 -8
8 -33 -15 -27 -24 3 -5 0 -12 -7 -16 -7 -4 -10 -4 -6 1 4 4 3 14 -2 20 -12 15
54 95 79 95 19 1 53 25 45 33 -5 4 16 47 24 47 1 0 -1 -12 -4 -27z m-74 -17
c0 -2 -7 -9 -15 -16 -13 -11 -14 -10 -9 4 5 14 24 23 24 12z m3916 -83 c3 -13
12 -23 20 -23 7 0 18 -9 24 -19 13 -26 13 -38 -2 -23 -8 8 -15 9 -25 1 -7 -7
-13 -10 -14 -8 0 2 -2 15 -5 29 -2 14 -12 41 -21 60 -8 19 -18 40 -20 45 -3 6
5 -1 16 -15 12 -14 24 -35 27 -47z m-76 42 c7 -9 8 -15 2 -15 -5 0 -12 7 -16
15 -3 8 -4 15 -2 15 2 0 9 -7 16 -15z m-3920 -101 c0 -3 -7 -12 -15 -20 -16
-17 -18 -14 -9 10 6 15 24 23 24 10z m4062 -52 c7 9 8 6 5 -11 -3 -13 -2 -34
3 -47 17 -44 -1 -24 -25 29 -27 57 -34 102 -8 49 12 -25 18 -30 25 -20z m46
-58 c2 -16 10 -33 18 -37 8 -5 11 -13 8 -19 -4 -6 0 -14 7 -19 10 -6 11 -11 2
-20 -8 -8 -14 -2 -24 24 -7 20 -16 34 -20 31 -4 -2 -5 4 -2 14 2 10 -3 24 -11
31 -21 18 -20 30 2 27 11 -2 18 -13 20 -32z m216 -919 c-4 -8 -8 -15 -10 -15
-2 0 -4 7 -4 15 0 8 4 15 10 15 5 0 7 -7 4 -15z m-734 -45 c0 -5 -10 -10 -22
-9 -22 0 -22 1 -3 9 11 5 21 9 23 9 1 1 2 -3 2 -9z m86 -21 c10 -17 -27 -9
-49 11 l-21 20 32 -11 c18 -6 35 -15 38 -20z m-96 -9 c12 -8 10 -10 -10 -9
-14 1 -36 5 -50 9 -23 7 -22 8 10 9 19 0 42 -4 50 -9z m762 -10 c10 -11 13
-22 7 -25 -5 -4 -7 -11 -4 -16 4 -5 1 -9 -5 -9 -10 0 -30 40 -30 61 0 15 14
10 32 -11z m-619 3 c-7 -2 -19 -2 -25 0 -7 3 -2 5 12 5 14 0 19 -2 13 -5z
m-540 -10 c-7 -2 -19 -2 -25 0 -7 3 -2 5 12 5 14 0 19 -2 13 -5z m476 -19 c2
-2 -17 -4 -42 -4 -26 0 -47 4 -47 9 0 8 79 3 89 -5z m-819 -34 c12 -8 11 -10
-7 -10 -13 0 -23 5 -23 10 0 13 11 13 30 0z m133 3 c-7 -2 -19 -2 -25 0 -7 3
-2 5 12 5 14 0 19 -2 13 -5z m472 -2 c-6 -5 -34 -11 -64 -14 -51 -6 -62 5 -16
16 36 8 89 7 80 -2z m-540 -26 c-16 -7 -34 -10 -40 -7 -5 4 4 10 20 13 47 10
53 9 20 -6z m582 9 c-3 -3 -12 -4 -19 -1 -8 3 -5 6 6 6 11 1 17 -2 13 -5z
m-127 -21 c2 -2 -18 -3 -47 -1 -28 2 -49 6 -47 10 4 6 85 -1 94 -9z m47 11
c-3 -3 -12 -4 -19 -1 -8 3 -5 6 6 6 11 1 17 -2 13 -5z m640 -20 c-3 -3 -12 -4
-19 -1 -8 3 -5 6 6 6 11 1 17 -2 13 -5z m-717 -8 c0 -2 -11 -6 -25 -8 -13 -3
-22 -1 -19 3 5 9 44 13 44 5z m477 -2 c-3 -3 -12 -4 -19 -1 -8 3 -5 6 6 6 11
1 17 -2 13 -5z m-1147 -12 c0 -4 -10 -13 -22 -21 -23 -14 -23 -14 -4 8 20 22
26 25 26 13z m156 -29 c13 -5 6 -10 -27 -24 -42 -17 -43 -18 -14 -19 26 -2 27
-3 8 -8 -13 -4 -32 -15 -43 -24 -11 -10 -20 -15 -20 -12 0 4 -7 1 -15 -6 -21
-18 -26 -9 -9 14 8 11 14 17 14 13 0 -4 16 11 36 33 38 42 42 44 70 33z m104
-57 c0 -2 -7 -7 -16 -10 -8 -3 -12 -2 -9 4 6 10 25 14 25 6z m-56 -20 c-6 -17
-34 -30 -34 -16 0 5 8 14 18 19 22 13 22 13 16 -3z m81 -6 c-3 -5 -11 -10 -16
-10 -6 0 -7 5 -4 10 3 6 11 10 16 10 6 0 7 -4 4 -10z m51 -9 c-3 -5 -16 -11
-28 -14 -22 -6 -22 -5 -4 8 22 17 40 20 32 6z m-202 -41 c-19 -8 -32 -19 -28
-23 4 -4 -1 -7 -12 -7 -15 0 -10 8 21 35 28 25 41 31 47 22 5 -8 -4 -17 -28
-27z m146 6 c0 -2 -7 -7 -16 -10 -8 -3 -12 -2 -9 4 6 10 25 14 25 6z m-3170
-26 c-20 -13 -33 -13 -25 0 3 6 14 10 23 10 15 0 15 -2 2 -10z m46 -15 c-10
-8 -23 -12 -28 -9 -14 9 2 24 25 24 21 -1 21 -1 3 -15z m-106 -10 c-14 -7 -27
-11 -30 -9 -6 7 22 24 40 23 9 0 5 -6 -10 -14z m3090 11 c0 -2 -7 -7 -16 -10
-8 -3 -12 -2 -9 4 6 10 25 14 25 6z m-2285 -26 c3 -6 -5 -10 -19 -10 -14 0
-28 5 -31 10 -3 6 5 10 19 10 14 0 28 -4 31 -10z m55 1 c0 -5 -9 -7 -20 -4
-11 3 -20 7 -20 9 0 2 9 4 20 4 11 0 20 -4 20 -9z m51 -24 c-10 -9 -11 -8 -5
6 3 10 9 15 12 12 3 -3 0 -11 -7 -18z m2079 8 c0 -8 -4 -15 -10 -15 -5 0 -7 7
-4 15 4 8 8 15 10 15 2 0 4 -7 4 -15z m-2897 -12 c-13 -2 -23 -8 -23 -12 0 -5
12 -6 26 -3 19 3 25 1 20 -7 -4 -6 -13 -11 -19 -10 -7 1 -25 -3 -40 -9 -16 -7
-38 -12 -50 -11 -12 1 -3 5 19 10 35 8 41 13 37 29 -4 17 -1 20 23 19 24 -1
25 -2 7 -6z m337 -3 c12 -8 11 -10 -7 -10 -13 0 -23 5 -23 10 0 13 11 13 30 0z
m440 0 c8 -5 11 -10 5 -10 -5 0 -17 5 -25 10 -8 5 -10 10 -5 10 6 0 17 -5 25
-10z m-751 -50 c-9 -5 -36 -12 -60 -14 l-44 -6 40 14 c48 17 89 21 64 6z m208
4 c-3 -3 -12 -4 -19 -1 -8 3 -5 6 6 6 11 1 17 -2 13 -5z m-357 -14 c0 -5 -4
-10 -10 -10 -5 0 -10 5 -10 10 0 6 5 10 10 10 6 0 10 -4 10 -10z m645 -20 c4
-6 -6 -10 -22 -9 -25 0 -26 1 -8 9 11 5 21 9 22 9 1 1 5 -3 8 -9z m-192 -17
c-7 -2 -21 -2 -30 0 -10 3 -4 5 12 5 17 0 24 -2 18 -5z m4294 1 c-3 -3 -12 -4
-19 -1 -8 3 -5 6 6 6 11 1 17 -2 13 -5z m-3750 -40 c-3 -3 -12 -4 -19 -1 -8 3
-5 6 6 6 11 1 17 -2 13 -5z m-182 -44 c3 -6 -1 -7 -9 -4 -18 7 -21 14 -7 14 6
0 13 -4 16 -10z m-125 -166 c0 -2 -12 -4 -27 -4 -21 0 -24 3 -14 9 13 8 41 5
41 -5z m44 -9 c-4 -8 -10 -12 -15 -9 -11 6 -2 24 11 24 5 0 7 -7 4 -15z m30
-10 c-4 -8 -10 -12 -15 -9 -11 6 -2 24 11 24 5 0 7 -7 4 -15z m26 -21 c0 -8
-4 -12 -10 -9 -5 3 -10 10 -10 16 0 5 5 9 10 9 6 0 10 -7 10 -16z m-270 -134
c0 -72 -2 -80 -19 -80 -24 0 -31 19 -31 78 0 58 7 68 48 81 1 1 2 -35 2 -79z
m98 48 c24 -24 4 -128 -24 -128 -11 0 -14 17 -14 70 0 71 10 86 38 58z m-88
-253 c0 -18 -4 -22 -20 -18 -19 5 -27 32 -14 46 12 12 34 -6 34 -28z m78 -5
c3 -20 1 -22 -25 -15 -38 9 -41 14 -18 31 25 18 39 13 43 -16z m-751 -492 c-2
-18 -4 -4 -4 32 0 36 2 50 4 33 2 -18 2 -48 0 -65z m5130 10 c-3 -7 -5 -2 -5
12 0 14 2 19 5 13 2 -7 2 -19 0 -25z m-5157 -43 c0 -25 -5 -45 -11 -45 -6 0
-8 9 -4 21 5 16 4 19 -5 14 -9 -5 -11 -3 -6 6 3 8 9 22 12 32 10 28 14 20 14
-28z m5157 -7 c-3 -8 -6 -5 -6 6 -1 11 2 17 5 13 3 -3 4 -12 1 -19z m-5258
-59 c0 -39 -2 -47 -14 -43 -16 7 -21 34 -6 34 5 0 7 19 4 43 -3 28 -1 38 5 28
5 -7 10 -35 11 -62z m41 -139 c0 -5 -4 -10 -9 -10 -6 0 -13 5 -16 10 -3 6 1
10 9 10 9 0 16 -4 16 -10z m5167 -142 c-3 -8 -6 -5 -6 6 -1 11 2 17 5 13 3 -3
4 -12 1 -19z m-284 -822 c4 -10 1 -13 -8 -9 -8 3 -12 9 -9 14 7 12 11 11 17
-5z m-43 -31 c0 -9 -6 -12 -15 -9 -8 4 -12 10 -9 15 8 14 24 10 24 -6z m-60
-624 c0 -6 -4 -13 -10 -16 -5 -3 -10 1 -10 9 0 9 5 16 10 16 6 0 10 -4 10 -9z
m-4770 -47 c0 -8 -4 -12 -10 -9 -5 3 -10 10 -10 16 0 5 5 9 10 9 6 0 10 -7 10
-16z m4780 -13 c0 -17 -18 -21 -24 -6 -3 9 0 15 9 15 8 0 15 -4 15 -9z m-4751
-31 c-14 -9 -29 -4 -29 10 0 12 34 18 39 7 2 -5 -3 -13 -10 -17z m-44 -50 c-3
-5 -11 -10 -16 -10 -6 0 -7 5 -4 10 3 6 11 10 16 10 6 0 7 -4 4 -10z m4755
-15 c0 -8 -7 -15 -16 -15 -14 0 -14 3 -4 15 7 8 14 15 16 15 2 0 4 -7 4 -15z
m-30 -295 c0 -5 -7 -10 -16 -10 -8 0 -12 5 -9 10 3 6 10 10 16 10 5 0 9 -4 9
-10z m-4520 -301 c0 -6 -4 -7 -10 -4 -5 3 -10 11 -10 16 0 6 5 7 10 4 6 -3 10
-11 10 -16z m550 -649 c0 -5 -4 -10 -9 -10 -6 0 -13 5 -16 10 -3 6 1 10 9 10
9 0 16 -4 16 -10z m3780 -33 c0 -20 -9 -25 -31 -20 -33 9 -21 25 24 32 4 0 7
-5 7 -12z m-41 -83 c12 -15 21 -22 21 -15 0 6 5 11 10 11 6 0 10 -7 10 -15 0
-8 5 -15 10 -15 6 0 10 5 10 11 0 5 5 7 10 4 6 -4 7 -12 3 -18 -4 -7 -9 -29
-10 -49 -2 -28 1 -38 12 -38 8 0 15 6 15 13 1 22 20 -20 24 -55 3 -18 5 -33 6
-33 1 0 3 -12 5 -27 2 -19 -1 -28 -11 -28 -8 0 -14 -4 -14 -10 0 -5 7 -10 15
-10 8 0 15 -4 15 -10 0 -5 -4 -10 -10 -10 -5 0 -7 -7 -3 -16 3 -8 12 -13 20
-10 12 5 13 0 8 -27 -4 -17 -11 -33 -16 -35 -5 -2 -9 -14 -9 -26 0 -12 -4 -26
-9 -32 -4 -5 -11 -26 -14 -46 -4 -29 -2 -38 9 -38 8 0 14 9 14 20 0 21 15 27
25 10 10 -16 25 -11 25 9 0 19 26 48 36 39 8 -8 -15 -60 -34 -75 -11 -10 -13
-16 -6 -19 7 -3 10 -15 8 -27 -2 -12 -2 -16 2 -9 10 21 24 13 24 -13 0 -14 6
-25 13 -26 10 0 10 -2 0 -6 -7 -2 -13 -13 -13 -23 0 -10 -4 -21 -9 -25 -20
-12 -38 -63 -35 -101 1 -21 0 -33 -3 -26 -6 16 -23 16 -23 -1 0 -22 24 -67 37
-67 21 0 23 -17 7 -61 -8 -24 -14 -57 -13 -74 2 -45 0 -49 -16 -35 -12 10 -15
10 -15 -4 0 -9 5 -16 10 -16 6 0 10 -5 10 -11 0 -6 -9 -8 -21 -4 -24 8 -46
-15 -26 -27 9 -6 9 -8 -1 -8 -10 0 -10 -5 -1 -21 7 -13 7 -19 1 -15 -6 4 -14
1 -19 -7 -4 -7 -21 -21 -38 -31 -16 -11 -38 -27 -47 -36 -10 -9 -36 -17 -59
-18 -52 -2 -89 -22 -123 -67 -26 -34 -30 -36 -69 -30 -35 5 -49 2 -80 -19 -21
-14 -43 -26 -49 -26 -6 0 -25 -11 -43 -24 -26 -20 -39 -24 -73 -19 -51 7 -123
-18 -169 -58 -31 -27 -34 -27 -75 -15 -37 10 -53 10 -111 -5 -38 -10 -70 -19
-70 -21 -26 -52 -57 -61 -92 -28 -17 16 -32 21 -52 17 -72 -14 -109 -28 -125
-47 -17 -21 -52 -27 -62 -11 -12 19 -85 22 -143 8 -37 -10 -82 -13 -123 -10
-49 4 -84 0 -138 -15 -57 -16 -78 -18 -100 -10 -20 8 -56 8 -120 1 -52 -6
-110 -7 -134 -2 -24 4 -80 8 -126 9 -57 0 -88 4 -97 14 -18 18 -153 37 -191
27 -22 -6 -42 -1 -86 21 -31 15 -68 28 -82 28 -28 0 -86 44 -86 66 0 8 -6 14
-12 15 -10 0 -10 2 0 6 22 9 13 20 -18 21 -16 0 -34 3 -40 7 -15 9 -12 25 5
25 8 0 15 -4 15 -10 0 -5 7 -10 16 -10 11 0 13 6 9 19 -5 16 -1 19 17 17 42
-6 107 -26 113 -37 4 -5 14 -9 23 -8 10 1 24 -1 32 -4 33 -13 129 -29 209 -34
67 -4 82 -3 79 8 -3 9 -18 13 -37 12 -24 -1 -29 2 -21 11 14 18 2 26 -40 26
-19 0 -62 7 -93 15 -32 8 -68 15 -80 15 -18 0 -19 2 -7 11 12 9 11 10 -8 6
-13 -3 -20 -1 -16 5 9 15 -24 46 -51 46 -29 -1 -95 29 -95 42 0 5 -8 11 -17
14 -24 8 -73 51 -73 64 0 5 -8 9 -17 8 -12 -1 -19 7 -21 22 -2 13 -11 32 -19
42 -18 21 -27 96 -13 105 6 4 6 15 -1 32 -7 20 -6 30 6 43 11 12 13 20 6 25
-14 8 -14 45 -1 45 6 0 10 7 10 15 0 7 6 18 14 22 7 4 16 15 19 23 4 12 6 11
6 -2 1 -10 6 -18 12 -18 5 0 8 4 5 9 -3 5 4 11 16 14 15 4 28 -1 41 -16 l20
-22 -6 23 c-3 12 -1 22 4 22 6 0 9 6 7 14 -2 8 2 15 7 16 6 0 11 -8 13 -20 2
-12 11 -20 23 -20 11 0 18 4 14 10 -3 5 4 26 15 47 11 21 20 32 20 25 0 -7 12
-17 27 -23 22 -8 30 -7 40 7 10 14 15 15 27 5 19 -16 64 -21 93 -10 14 5 23 4
26 -4 2 -7 17 2 35 22 31 32 32 32 33 10 0 -16 3 -19 6 -9 8 20 29 40 42 40
15 0 14 -37 -1 -44 -7 -3 1 -4 17 -3 24 2 29 6 27 22 -2 11 -8 22 -13 26 -5 3
7 5 26 6 19 1 35 -2 35 -7 0 -4 25 -6 55 -5 31 1 56 -3 59 -9 2 -6 5 -3 5 7 1
14 6 17 23 11 12 -3 28 -13 36 -21 12 -12 17 -12 31 2 24 21 31 19 31 -7 0
-19 2 -20 10 -8 9 13 11 13 19 1 7 -11 10 -8 13 14 2 16 9 30 17 33 10 3 11
-2 6 -18 -6 -20 -4 -22 19 -18 14 3 26 2 26 -1 0 -11 75 -30 78 -20 2 5 10 9
18 9 8 0 14 5 14 10 0 6 11 10 24 10 13 0 26 5 28 12 3 9 12 9 36 -1 29 -12
35 -12 53 5 20 18 21 18 34 0 9 -12 20 -16 34 -11 12 3 39 -2 65 -13 33 -15
47 -17 56 -8 10 8 14 8 17 -1 3 -7 11 -13 19 -13 9 0 13 4 9 9 -7 13 52 54 69
48 7 -3 20 3 29 14 20 23 67 26 67 4 0 -21 17 -19 30 4 5 11 19 22 29 26 11 3
18 12 15 18 -3 9 16 16 62 24 40 7 71 18 78 29 7 9 18 14 24 10 7 -4 12 -1 12
9 0 8 7 18 15 21 17 7 21 44 4 44 -5 0 -7 5 -4 10 4 6 10 8 15 5 5 -3 24 4 42
15 18 11 41 20 51 20 9 0 17 4 17 9 0 4 27 25 60 46 33 21 60 42 60 46 0 5 3
8 8 7 16 -4 52 14 52 28 0 8 9 14 19 14 11 0 23 5 26 10 3 6 14 10 24 10 9 0
27 9 39 20 12 11 36 23 54 27 18 3 37 12 41 20 4 7 16 13 25 13 9 0 28 7 42
14 14 8 40 22 58 32 24 12 31 21 27 35 -8 24 4 25 21 2 12 -16 12 -16 7 5 -3
14 -1 22 7 22 7 0 19 8 26 17 7 10 16 14 21 10 4 -5 0 -13 -10 -18 -21 -12
-22 -26 -2 -45 8 -9 15 -13 15 -10 0 3 0 8 0 11 0 8 56 65 64 65 4 0 14 7 22
15 23 22 50 18 73 -11z m-3349 -68 c0 -2 -7 -7 -16 -10 -8 -3 -12 -2 -9 4 6
10 25 14 25 6z m10 -36 c0 -5 -2 -10 -4 -10 -3 0 -8 5 -11 10 -3 6 -1 10 4 10
6 0 11 -4 11 -10z m1935 -550 c-11 -5 -27 -9 -35 -9 -9 0 -8 4 5 9 11 5 27 9
35 9 9 0 8 -4 -5 -9z m-940 -40 c3 -5 -1 -10 -9 -10 -9 0 -16 5 -16 10 0 6 4
10 9 10 6 0 13 -4 16 -10z"/>
<path d="M7841 11794 c0 -11 3 -14 6 -6 3 7 2 16 -1 19 -3 4 -6 -2 -5 -13z"/>
<path d="M7648 11773 c7 -3 16 -2 19 1 4 3 -2 6 -13 5 -11 0 -14 -3 -6 -6z"/>
<path d="M7680 11737 c12 -13 22 -14 45 -8 21 7 24 10 10 10 -11 1 -31 4 -45
7 -23 6 -24 5 -10 -9z"/>
<path d="M7588 11733 c7 -3 16 -2 19 1 4 3 -2 6 -13 5 -11 0 -14 -3 -6 -6z"/>
<path d="M7660 11719 c0 -5 5 -7 10 -4 6 3 10 8 10 11 0 2 -4 4 -10 4 -5 0
-10 -5 -10 -11z"/>
<path d="M7718 11688 c5 -5 16 -8 23 -6 8 3 3 7 -10 11 -17 4 -21 3 -13 -5z"/>
<path d="M7336 11615 c-11 -8 -31 -15 -45 -15 -19 0 -22 -3 -12 -9 7 -5 26 -5
41 -1 17 5 32 4 38 -2 7 -7 10 -1 9 16 -2 30 -5 31 -31 11z"/>
<path d="M7611 11591 c-7 -5 -9 -11 -5 -14 5 -3 15 1 22 9 14 16 5 18 -17 5z"/>
<path d="M7761 11514 c0 -11 3 -14 6 -6 3 7 2 16 -1 19 -3 4 -6 -2 -5 -13z"/>
<path d="M6790 11352 c0 -4 9 -8 20 -9 11 -1 20 2 20 8 0 5 -9 9 -20 9 -11 0
-20 -4 -20 -8z"/>
<path d="M8278 11323 c7 -3 16 -2 19 1 4 3 -2 6 -13 5 -11 0 -14 -3 -6 -6z"/>
<path d="M8120 11311 c0 -6 4 -13 10 -16 6 -3 7 1 4 9 -7 18 -14 21 -14 7z"/>
<path d="M6155 11170 c-13 -5 -14 -9 -5 -9 8 0 24 4 35 9 13 5 14 9 5 9 -8 0
-24 -4 -35 -9z"/>
<path d="M5988 11143 c7 -3 16 -2 19 1 4 3 -2 6 -13 5 -11 0 -14 -3 -6 -6z"/>
<path d="M8580 11079 c0 -5 5 -7 10 -4 6 3 10 8 10 11 0 2 -4 4 -10 4 -5 0
-10 -5 -10 -11z"/>
<path d="M5631 11060 c-13 -11 -18 -20 -13 -20 6 0 14 5 18 11 3 6 14 9 24 6
13 -3 17 0 13 9 -7 18 -13 17 -42 -6z"/>
<path d="M8550 11000 c6 -11 13 -20 16 -20 2 0 0 9 -6 20 -6 11 -13 20 -16 20
-2 0 0 -9 6 -20z"/>
<path d="M9261 9975 c0 -5 10 -50 23 -100 26 -97 34 -97 12 0 -13 59 -34 119
-35 100z"/>
<path d="M9312 9760 c0 -14 2 -19 5 -12 2 6 2 18 0 25 -3 6 -5 1 -5 -13z"/>
<path d="M9322 9700 c0 -14 2 -19 5 -12 2 6 2 18 0 25 -3 6 -5 1 -5 -13z"/>
<path d="M8789 9579 c24 -11 46 -18 48 -15 4 4 -73 36 -85 35 -4 0 13 -9 37
-20z"/>
<path d="M8860 9545 c7 -8 18 -15 25 -15 7 0 18 -7 25 -15 7 -8 17 -15 22 -15
17 0 -12 28 -45 45 -38 19 -43 19 -27 0z"/>
<path d="M8285 9530 c3 -5 14 -10 23 -10 15 0 15 2 2 10 -20 13 -33 13 -25 0z"/>
<path d="M8740 9520 c8 -5 22 -10 30 -10 13 0 13 1 0 10 -8 5 -22 10 -30 10
-13 0 -13 -1 0 -10z"/>
<path d="M8947 9519 c7 -7 15 -10 18 -7 3 3 -2 9 -12 12 -14 6 -15 5 -6 -5z"/>
<path d="M8338 9503 c7 -3 16 -2 19 1 4 3 -2 6 -13 5 -11 0 -14 -3 -6 -6z"/>
<path d="M7649 9353 c-13 -16 -12 -17 4 -4 9 7 17 15 17 17 0 8 -8 3 -21 -13z"/>
<path d="M8520 9340 c0 -15 50 -24 63 -11 9 10 5 11 -17 5 -21 -5 -27 -4 -22
5 4 6 1 11 -8 11 -9 0 -16 -4 -16 -10z"/>
<path d="M7600 9330 c-8 -5 -10 -10 -5 -10 6 0 17 5 25 10 8 5 11 10 5 10 -5
0 -17 -5 -25 -10z"/>
<path d="M8393 9323 c-29 -9 -53 -20 -53 -25 0 -16 92 12 105 31 3 6 5 11 3
10 -2 0 -27 -8 -55 -16z"/>
<path d="M8302 9313 c-6 -2 -10 -9 -6 -14 8 -14 21 -11 28 6 6 15 1 17 -22 8z"/>
<path d="M8465 9309 c-35 -10 -140 -62 -110 -55 11 3 37 8 58 12 21 3 35 9 32
13 -4 3 10 11 31 17 21 6 34 13 28 16 -5 3 -22 1 -39 -3z"/>
<path d="M8730 9310 c0 -5 7 -7 15 -4 8 4 15 8 15 10 0 2 -7 4 -15 4 -8 0 -15
-4 -15 -10z"/>
<path d="M8492 9274 c-7 -8 -8 -14 -3 -14 10 0 25 19 20 25 -2 1 -10 -3 -17
-11z"/>
<path d="M8148 9273 c6 -2 18 -2 25 0 6 3 1 5 -13 5 -14 0 -19 -2 -12 -5z"/>
<path d="M8217 9258 c-7 -4 4 -8 26 -8 20 0 37 4 37 10 0 11 -45 10 -63 -2z"/>
<path d="M4854 9224 c-18 -14 -18 -14 6 -3 31 14 36 19 24 19 -6 0 -19 -7 -30
-16z"/>
<path d="M7527 9199 c-15 -22 -27 -46 -27 -52 0 -6 14 11 31 37 17 26 29 49
27 51 -3 3 -17 -14 -31 -36z"/>
<path d="M8958 9233 c7 -3 16 -2 19 1 4 3 -2 6 -13 5 -11 0 -14 -3 -6 -6z"/>
<path d="M5385 9220 c3 -5 12 -7 20 -3 21 7 19 13 -6 13 -11 0 -18 -4 -14 -10z"/>
<path d="M7476 9215 c-3 -9 -6 -24 -5 -33 0 -9 5 -4 10 12 9 32 6 48 -5 21z"/>
<path d="M8975 9220 c-14 -7 -8 -8 20 -3 22 3 42 7 44 9 9 8 -45 2 -64 -6z"/>
<path d="M9058 9213 c7 -3 16 -2 19 1 4 3 -2 6 -13 5 -11 0 -14 -3 -6 -6z"/>
<path d="M7599 9182 c-6 -18 -16 -32 -22 -32 -6 0 -7 -3 -4 -7 4 -3 0 -17 -9
-31 -9 -13 -11 -21 -5 -18 15 10 64 107 57 114 -3 3 -11 -9 -17 -26z"/>
<path d="M7467 9147 c-4 -10 -2 -17 3 -17 6 0 10 -8 11 -17 0 -10 3 -13 5 -7
3 6 1 21 -4 34 -7 19 -10 21 -15 7z"/>
<path d="M7700 9140 c0 -5 7 -7 15 -4 8 4 15 8 15 10 0 2 -7 4 -15 4 -8 0 -15
-4 -15 -10z"/>
<path d="M7875 9110 c-3 -6 1 -7 9 -4 18 7 21 14 7 14 -6 0 -13 -4 -16 -10z"/>
<path d="M5740 9100 c0 -5 5 -10 11 -10 5 0 7 5 4 10 -3 6 -8 10 -11 10 -2 0
-4 -4 -4 -10z"/>
<path d="M4978 9023 c7 -3 16 -2 19 1 4 3 -2 6 -13 5 -11 0 -14 -3 -6 -6z"/>
<path d="M8280 9014 c-8 -2 -53 -6 -100 -9 -124 -7 -151 -10 -190 -20 -19 -5
-39 -9 -45 -10 -13 -1 -88 -38 -95 -46 -3 -3 -16 -12 -30 -20 -51 -28 -109
-74 -110 -86 0 -7 -8 -13 -18 -13 -10 0 -31 -13 -47 -30 -16 -16 -26 -30 -23
-30 4 0 -7 -13 -24 -30 -16 -16 -33 -30 -38 -30 -11 0 -54 -69 -47 -76 6 -6
42 13 72 38 11 9 29 18 40 20 11 2 19 10 17 16 -1 7 1 11 6 10 4 -2 18 7 32
20 13 12 30 22 37 22 7 0 10 6 7 15 -4 9 3 16 20 21 14 3 26 12 26 20 0 8 5
14 11 14 5 0 7 -4 4 -10 -3 -5 -1 -10 4 -10 10 0 12 5 11 25 0 3 5 12 12 19 9
10 17 11 26 4 9 -8 12 -6 12 6 0 10 5 14 10 11 6 -3 10 -2 10 3 0 5 15 7 33 5
26 -3 28 -1 12 6 -19 9 -19 10 3 10 13 1 30 8 38 16 17 17 44 20 44 5 0 -5 9
-2 19 8 43 38 51 41 111 43 14 1 28 6 32 12 3 6 30 9 60 7 58 -3 67 -3 117 1
19 1 37 -3 39 -9 2 -7 13 -7 35 -1 40 11 46 11 27 -1 -12 -8 -8 -10 15 -11 17
-1 33 -1 37 0 18 2 59 -20 53 -30 -4 -6 -14 -8 -22 -5 -8 4 -11 1 -7 -5 4 -7
-9 -9 -42 -4 -27 3 -57 7 -66 8 -10 0 -18 4 -18 7 0 12 -86 -3 -102 -18 -17
-14 -18 -13 -19 9 -1 16 -3 18 -6 7 -5 -19 -37 -33 -53 -23 -5 3 -10 0 -10 -7
0 -10 -2 -10 -9 1 -6 9 -10 9 -12 2 -2 -6 -26 -13 -54 -17 -27 -3 -58 -12 -67
-21 -10 -9 -25 -12 -37 -8 -12 4 -21 2 -21 -4 0 -6 -8 -11 -19 -11 -11 0 -21
-9 -24 -21 -3 -12 -10 -18 -15 -15 -5 3 -22 -6 -36 -19 -15 -14 -30 -25 -34
-25 -4 0 -19 -11 -34 -25 -15 -14 -31 -25 -36 -25 -6 0 -13 -7 -16 -16 -3 -8
-10 -12 -16 -9 -5 3 -10 0 -10 -7 0 -11 -2 -10 -9 0 -6 11 -13 8 -29 -12 -11
-14 -25 -26 -31 -26 -6 0 -18 -11 -27 -25 -9 -14 -21 -25 -26 -25 -13 0 -38
-26 -38 -39 0 -6 -4 -11 -8 -11 -9 0 -56 -79 -51 -84 2 -2 15 -7 29 -11 23 -7
23 -7 6 10 -9 10 -13 21 -8 24 5 3 14 16 21 29 6 12 20 22 31 22 10 0 22 5 25
10 5 8 11 7 20 0 11 -9 16 -6 21 15 3 14 11 24 17 22 12 -4 24 3 68 45 16 15
38 30 49 33 11 4 20 12 20 19 0 6 15 17 33 24 19 7 39 23 46 38 7 17 17 24 26
20 10 -3 15 1 15 12 0 15 2 15 10 2 7 -11 10 -11 10 -2 0 7 5 10 10 7 6 -3 10
1 10 9 0 9 6 16 14 16 8 0 17 6 19 13 3 7 6 5 6 -6 1 -10 -8 -35 -19 -57 -41
-81 -17 -187 63 -267 32 -33 49 -43 74 -43 18 0 33 -4 33 -10 0 -5 16 -10 35
-10 19 0 35 5 35 10 0 6 29 10 67 10 67 0 67 0 113 48 73 76 96 164 66 250
-16 45 -8 59 22 43 11 -6 22 -7 26 -4 3 3 6 2 6 -4 0 -6 9 -13 20 -16 12 -3
20 -14 20 -25 0 -12 9 -23 19 -27 35 -11 57 -109 31 -140 -13 -15 -11 -16 23
-10 40 8 47 0 20 -21 -16 -12 -16 -15 -3 -24 8 -5 24 -7 35 -4 14 4 16 3 7 -4
-11 -7 -11 -10 2 -15 11 -5 16 -19 16 -51 0 -30 5 -46 15 -50 8 -3 15 -11 15
-18 0 -7 9 -19 20 -26 17 -10 21 -10 27 3 3 9 12 14 20 11 9 -4 13 -1 11 6 -6
18 19 41 37 35 7 -3 16 -1 19 6 3 9 8 8 16 -3 10 -13 11 -13 6 3 -3 11 0 17 9
17 8 0 15 9 15 21 0 16 4 19 23 14 25 -8 22 -8 57 -6 20 1 22 3 10 11 -12 7
-8 10 15 10 20 0 26 -3 17 -9 -9 -6 -5 -8 15 -8 15 0 38 -4 51 -8 35 -12 26
12 -10 25 -30 11 -31 13 -13 20 19 8 19 9 -2 9 -12 1 -25 6 -28 11 -4 6 14 10
47 11 52 1 52 2 13 8 -54 9 -100 31 -114 54 -10 16 -9 19 10 24 20 6 19 7 -13
27 -49 30 -108 88 -101 99 3 6 1 7 -4 4 -6 -4 -21 9 -34 28 -13 19 -27 35 -30
35 -4 0 -9 6 -12 13 -3 8 1 14 9 14 8 0 14 -4 14 -9 0 -5 4 -7 8 -4 4 2 28
-11 51 -30 24 -19 49 -34 55 -34 6 0 4 5 -5 10 -29 17 -99 90 -99 103 0 7 -16
21 -35 30 -19 9 -35 21 -35 27 0 5 -7 10 -16 10 -8 0 -35 12 -59 26 -25 14
-49 23 -55 19 -5 -3 -10 -1 -10 5 0 6 -4 9 -9 6 -5 -4 -12 0 -14 6 -4 10 -8
10 -15 -1 -8 -11 -11 -11 -18 2 -12 20 -274 44 -344 31z m-268 -96 c-7 -7 -12
-8 -12 -2 0 14 12 26 19 19 2 -3 -1 -11 -7 -17z m612 -13 c11 -8 16 -15 10
-15 -5 0 -18 7 -28 15 -11 8 -16 15 -10 15 5 0 18 -7 28 -15z m-294 -5 c0 -5
-5 -10 -11 -10 -5 0 -7 5 -4 10 3 6 8 10 11 10 2 0 4 -4 4 -10z m87 -20 c3
-10 2 -11 -4 -4 -4 6 -15 14 -23 17 -11 5 -9 6 4 4 11 -1 21 -9 23 -17z m20
-2 c-3 -8 -6 -5 -6 6 -1 11 2 17 5 13 3 -3 4 -12 1 -19z m38 2 c3 -5 1 -10 -4
-10 -6 0 -11 5 -11 10 0 6 2 10 4 10 3 0 8 -4 11 -10z m-276 -176 c2 -84 1
-85 -21 -82 -18 2 -24 10 -26 38 -6 59 7 120 24 113 7 -3 14 0 14 6 0 6 2 11
4 11 2 0 4 -39 5 -86z m111 10 c0 -60 -11 -94 -31 -94 -17 0 -19 8 -19 74 0
50 4 76 13 79 18 7 37 -23 37 -59z m-90 -236 c0 -11 -8 -18 -20 -18 -14 0 -20
7 -20 21 0 11 -4 17 -10 14 -14 -8 -13 8 1 22 14 14 49 -14 49 -39z m860 38
c0 -3 -4 -8 -10 -11 -5 -3 -10 -1 -10 4 0 6 5 11 10 11 6 0 10 -2 10 -4z
m-783 -17 c17 -17 4 -39 -22 -39 -21 0 -41 31 -27 44 9 10 37 7 49 -5z m716
-24 c-3 -9 -8 -14 -10 -11 -3 3 -2 9 2 15 9 16 15 13 8 -4z"/>
<path d="M6010 8960 c6 -11 13 -20 16 -20 2 0 0 9 -6 20 -6 11 -13 20 -16 20
-2 0 0 -9 6 -20z"/>
<path d="M4918 8963 c7 -3 16 -2 19 1 4 3 -2 6 -13 5 -11 0 -14 -3 -6 -6z"/>
<path d="M5880 8963 c0 -10 35 -34 75 -50 27 -12 28 -12 10 2 -11 8 -25 18
-31 23 -20 17 -54 33 -54 25z"/>
<path d="M5948 8943 c7 -3 16 -2 19 1 4 3 -2 6 -13 5 -11 0 -14 -3 -6 -6z"/>
<path d="M8408 8933 c7 -3 16 -2 19 1 4 3 -2 6 -13 5 -11 0 -14 -3 -6 -6z"/>
<path d="M5448 8913 c7 -3 16 -2 19 1 4 3 -2 6 -13 5 -11 0 -14 -3 -6 -6z"/>
<path d="M5907 8880 c32 -30 53 -38 53 -20 0 6 -6 10 -13 10 -7 0 -19 9 -27
20 -8 11 -21 20 -30 20 -10 0 -4 -10 17 -30z"/>
<path d="M5841 8849 c-13 -5 -21 -12 -18 -15 3 -3 15 0 27 6 17 9 30 8 67 -10
25 -12 52 -28 60 -36 8 -8 21 -14 29 -14 16 0 19 -16 5 -24 -5 -4 -11 0 -14 6
-3 10 -7 10 -17 1 -9 -8 -7 -13 10 -18 34 -11 59 -36 53 -54 -4 -13 -2 -13 10
2 19 23 26 22 20 -3 -4 -16 0 -20 21 -20 17 0 26 -5 26 -16 0 -8 4 -13 8 -10
5 3 9 -1 9 -9 0 -16 -13 -20 -19 -6 -1 4 -14 12 -28 16 -24 7 -25 7 -5 -9 20
-17 20 -17 -2 -11 -16 4 -23 2 -23 -7 0 -10 -2 -10 -9 0 -10 17 -43 12 -49 -7
-3 -10 0 -12 12 -8 10 4 16 1 16 -7 0 -17 27 -29 35 -16 3 5 12 7 20 4 8 -4
13 -10 10 -15 -7 -10 35 -34 54 -30 9 1 12 -3 8 -13 -5 -13 1 -16 32 -16 l39
0 -8 37 c-5 20 -6 41 -3 46 3 6 1 7 -4 4 -12 -8 -23 14 -23 44 0 14 -9 21 -30
26 -16 3 -30 9 -30 14 0 5 -7 6 -15 3 -8 -4 -15 -2 -15 4 0 5 8 13 18 17 15 6
13 9 -10 21 -16 8 -28 18 -28 23 0 5 -10 11 -21 14 -14 4 -20 11 -16 20 4 10
-2 17 -14 20 -13 4 -19 12 -17 24 2 12 -4 19 -19 21 -13 2 -23 -1 -23 -7 0 -7
-13 -6 -36 4 -41 17 -59 18 -93 4z m159 -19 c0 -5 -2 -10 -4 -10 -3 0 -8 5
-11 10 -3 6 -1 10 4 10 6 0 11 -4 11 -10z m60 -90 c0 -5 -2 -10 -4 -10 -3 0
-8 5 -11 10 -3 6 -1 10 4 10 6 0 11 -4 11 -10z m95 -180 c-3 -5 -13 -6 -21 -3
-12 4 -13 8 -3 14 15 9 32 2 24 -11z"/>
<path d="M6100 8750 c0 -5 5 -10 10 -10 6 0 10 5 10 10 0 6 -4 10 -10 10 -5 0
-10 -4 -10 -10z"/>
<path d="M4966 8594 c-9 -24 -2 -26 12 -4 7 11 8 20 3 20 -5 0 -12 -7 -15 -16z"/>
<path d="M6205 8490 c27 -12 35 -12 35 0 0 6 -12 10 -27 9 -25 0 -26 -1 -8 -9z"/>
<path d="M8613 8436 c15 -12 16 -18 8 -35 -14 -25 -14 -41 -1 -41 6 0 10 6 10
14 0 8 7 16 15 20 8 3 15 1 15 -4 0 -17 18 -11 22 8 2 11 -8 23 -29 35 -39 20
-66 22 -40 3z"/>
<path d="M8722 8437 c-7 -8 -9 -17 -5 -21 4 -4 1 -11 -6 -15 -7 -5 -10 -14 -7
-20 11 -16 26 -13 20 4 -4 8 -1 15 6 15 10 0 10 3 1 14 -9 11 -9 15 1 19 7 2
10 7 7 11 -3 4 -11 0 -17 -7z"/>
<path d="M8560 8420 c-12 -8 -10 -10 8 -10 12 0 22 -4 22 -10 0 -16 17 -12 24
6 3 9 2 12 -5 9 -5 -4 -15 -2 -22 4 -8 6 -18 6 -27 1z"/>
<path d="M8523 8366 c10 -8 26 -24 37 -36 11 -13 20 -19 20 -13 0 15 -47 63
-62 63 -8 -1 -7 -5 5 -14z"/>
<path d="M8360 8362 c0 -6 16 -28 36 -49 34 -36 35 -37 21 -8 -17 34 -57 74
-57 57z"/>
<path d="M8442 8340 c13 -15 29 -36 35 -46 8 -11 7 -3 -2 20 -8 21 -15 40 -15
41 0 1 -9 5 -20 8 -19 5 -19 4 2 -23z"/>
<path d="M8870 8358 c0 -11 12 -10 30 2 12 7 10 9 -8 7 -12 0 -22 -5 -22 -9z"/>
<path d="M4830 8356 c0 -2 7 -7 16 -10 8 -3 12 -2 9 4 -6 10 -25 14 -25 6z"/>
<path d="M8227 8340 c2 -9 10 -17 17 -17 7 0 11 8 9 17 -2 9 -10 17 -17 17 -7
0 -11 -8 -9 -17z"/>
<path d="M8647 8339 c7 -7 15 -10 18 -7 3 3 -2 9 -12 12 -14 6 -15 5 -6 -5z"/>
<path d="M8155 8329 c-4 -6 -5 -12 -2 -15 2 -3 7 2 10 11 7 17 1 20 -8 4z"/>
<path d="M4966 8263 c2 -7 0 -13 -4 -13 -4 0 -16 -13 -27 -28 l-19 -27 24 16
c23 15 66 70 43 56 -6 -4 -13 -4 -16 0 -2 5 -2 2 -1 -4z"/>
<path d="M5137 8231 c-4 -17 -3 -21 5 -13 5 5 8 16 6 23 -3 8 -7 3 -11 -10z"/>
<path d="M5206 8223 c-6 -14 -5 -15 5 -6 7 7 10 15 7 18 -3 3 -9 -2 -12 -12z"/>
<path d="M9426 6907 c3 -10 9 -15 12 -12 3 3 0 11 -7 18 -10 9 -11 8 -5 -6z"/>
<path d="M9360 6800 c0 -5 5 -10 10 -10 6 0 10 5 10 10 0 6 -4 10 -10 10 -5 0
-10 -4 -10 -10z"/>
<path d="M6155 6767 c3 -7 -2 -20 -11 -28 -15 -13 -16 -11 -10 11 6 19 5 21
-3 10 -6 -8 -11 -28 -11 -43 0 -16 -6 -34 -13 -41 -18 -18 -108 -20 -101 -3 3
10 -5 12 -31 9 -24 -3 -40 1 -48 10 -12 16 -47 32 -47 22 0 -11 23 -50 43 -71
20 -23 39 -52 56 -89 5 -12 17 -24 26 -28 14 -5 15 -9 5 -21 -10 -12 -9 -15 8
-15 11 0 25 -7 32 -15 7 -9 15 -13 17 -11 3 2 18 0 35 -6 21 -7 26 -14 19 -21
-14 -14 -14 -37 -1 -37 6 0 10 6 10 14 0 10 11 13 38 11 20 -2 39 -4 42 -5 3
-1 21 -1 40 0 19 0 51 -6 71 -14 20 -8 64 -15 100 -14 73 0 191 -24 197 -41 2
-6 12 -11 23 -11 10 0 19 -5 19 -11 0 -6 8 -8 19 -4 11 3 28 1 39 -6 12 -8 30
-9 48 -4 l29 8 -25 7 c-23 7 -24 8 -5 14 11 4 34 14 50 21 17 8 48 16 70 17
22 1 47 10 58 21 11 11 29 17 47 15 17 -1 36 5 48 15 13 12 22 15 27 8 8 -14
45 -14 45 -1 0 6 9 10 19 10 11 0 23 -4 26 -10 3 -5 11 -10 16 -10 6 0 8 4 5
9 -7 10 22 24 34 16 13 -8 74 17 93 38 9 11 20 18 23 14 10 -9 115 35 142 60
14 13 29 23 34 23 5 0 7 4 3 9 -3 6 5 15 17 22 30 16 48 35 41 43 -3 3 2 15
12 27 16 17 17 22 5 29 -9 5 -19 5 -27 -2 -7 -5 -33 -12 -59 -13 -25 -2 -51
-8 -56 -13 -7 -7 -20 -7 -39 0 -17 6 -41 8 -54 6 -13 -3 -22 -1 -19 3 3 5 -14
8 -38 8 -40 -1 -41 -2 -13 -9 27 -7 27 -8 5 -8 -14 0 -36 4 -50 8 -23 7 -23 8
-4 9 17 1 22 7 20 26 -1 26 -12 30 -53 19 -13 -4 -23 -14 -23 -23 0 -10 -3
-12 -8 -5 -10 14 -101 12 -95 -2 7 -18 -18 -29 -28 -13 -6 10 -9 10 -9 2 0
-11 -49 -44 -72 -49 -5 -1 -11 -2 -14 -3 -4 0 0 -8 7 -17 12 -15 11 -16 -8
-10 -18 6 -20 4 -16 -14 3 -11 1 -20 -5 -20 -6 0 -13 -8 -16 -18 -3 -10 -20
-26 -36 -36 -17 -9 -28 -20 -26 -24 5 -8 -10 -10 -124 -15 -88 -4 -114 -1
-105 13 3 5 -11 6 -31 3 -32 -5 -36 -4 -31 11 8 19 -32 39 -58 30 -8 -4 -15
-1 -15 6 0 6 -7 18 -15 26 -8 9 -15 12 -15 8 0 -4 -10 6 -22 22 -43 55 -51 62
-63 58 -7 -3 -23 7 -35 23 -12 15 -25 27 -28 26 -4 -1 -18 5 -31 14 -18 11
-26 13 -29 5 -2 -7 -8 -12 -14 -12 -6 0 -8 7 -4 15 7 18 -15 20 -33 3 -10 -11
-12 -10 -9 1 2 8 -5 17 -14 19 -12 2 -16 -1 -13 -11z m-31 -112 c-6 -16 -24
-21 -24 -7 0 11 11 22 21 22 5 0 6 -7 3 -15z m-57 -20 c-6 -7 -15 -11 -19 -8
-14 8 -8 19 12 20 16 1 17 -1 7 -12z"/>
<path d="M7490 6570 c0 -5 5 -10 11 -10 5 0 7 5 4 10 -3 6 -8 10 -11 10 -2 0
-4 -4 -4 -10z"/>
<path d="M9125 6300 c-3 -5 -2 -10 4 -10 5 0 13 5 16 10 3 6 2 10 -4 10 -5 0
-13 -4 -16 -10z"/>
<path d="M9100 6260 c0 -5 5 -10 11 -10 5 0 7 5 4 10 -3 6 -8 10 -11 10 -2 0
-4 -4 -4 -10z"/>
<path d="M4455 6170 c-3 -5 3 -10 14 -10 12 0 21 5 21 10 0 6 -6 10 -14 10 -8
0 -18 -4 -21 -10z"/>
<path d="M9103 6173 c-17 -6 -17 -24 -1 -20 7 1 14 -8 16 -20 4 -25 18 -31 24
-11 4 12 -13 58 -22 57 -3 0 -11 -3 -17 -6z"/>
<path d="M9125 6080 c-3 -5 -1 -10 4 -10 6 0 11 5 11 10 0 6 -2 10 -4 10 -3 0
-8 -4 -11 -10z"/>
<path d="M5425 6040 c-18 -8 -18 -9 -2 -9 10 -1 17 -7 14 -13 -4 -15 52 -60
64 -52 5 3 9 1 9 -4 0 -5 16 -17 35 -26 23 -11 32 -21 29 -31 -4 -9 0 -15 10
-15 9 0 16 -4 16 -10 0 -5 6 -10 13 -10 7 0 19 -8 28 -17 8 -10 29 -29 47 -43
17 -14 32 -33 32 -44 0 -12 5 -16 15 -12 9 3 15 0 15 -8 0 -8 7 -16 15 -20 8
-3 15 -12 15 -21 0 -8 7 -15 16 -15 9 0 14 -6 11 -13 -3 -7 1 -21 9 -32 9 -13
14 -14 14 -5 0 9 5 8 16 -6 8 -10 13 -13 9 -6 -3 6 -4 12 0 12 3 0 10 -12 15
-26 7 -16 16 -24 24 -21 9 4 16 -3 20 -19 4 -13 11 -24 17 -24 6 0 7 5 3 12
-4 7 -3 8 4 4 6 -4 9 -13 5 -21 -3 -10 2 -15 16 -15 12 0 21 -6 21 -15 0 -8 6
-14 13 -13 6 2 11 -2 10 -9 -2 -7 4 -10 12 -7 8 4 15 1 15 -5 0 -6 -7 -11 -15
-11 -8 0 -15 -4 -15 -9 0 -5 9 -7 20 -4 11 3 20 0 20 -6 0 -21 3 -26 29 -48
14 -13 34 -21 43 -18 10 3 28 8 39 11 15 4 19 3 14 -6 -5 -9 -2 -10 13 -6 12
4 22 1 25 -7 3 -8 16 -13 29 -12 12 1 28 -1 33 -6 6 -4 12 -7 15 -7 15 3 87
-15 98 -24 6 -6 12 -7 12 -3 0 4 -10 15 -22 26 l-23 19 27 -4 c16 -3 32 1 39
10 9 11 8 14 -4 14 -8 0 -17 9 -20 20 -4 16 -11 19 -29 15 -17 -4 -28 1 -42
20 -10 14 -25 25 -32 25 -8 0 -14 7 -14 15 0 8 -5 15 -11 15 -6 0 -9 7 -6 14
4 9 1 13 -6 10 -7 -2 -17 4 -24 15 -9 15 -9 23 2 37 7 11 16 16 20 13 3 -4 -1
-14 -10 -23 -20 -19 -7 -21 18 -2 10 8 15 20 11 30 -4 11 -1 16 11 16 9 0 13
-4 10 -10 -3 -5 0 -7 8 -4 22 8 33 -17 13 -28 -17 -10 -13 -28 7 -28 7 0 6 4
-3 11 -12 9 -11 10 7 6 15 -3 20 -1 16 8 -3 8 4 15 19 17 13 2 24 11 27 23 3
16 1 17 -11 7 -19 -16 -54 8 -45 31 5 13 22 15 114 12 114 -5 163 -12 163 -24
0 -4 16 -8 37 -9 20 -2 40 -5 45 -8 4 -3 8 -1 8 4 0 5 37 9 84 8 46 0 82 -5
79 -10 -3 -4 3 -6 13 -3 67 20 118 29 144 24 16 -4 32 -2 35 4 4 5 15 7 26 4
10 -4 19 -2 19 3 0 5 9 12 20 15 11 3 18 2 15 -3 -3 -4 6 -10 20 -12 13 -3 26
-1 27 4 4 12 58 20 58 8 0 -5 5 -10 11 -10 6 0 17 -7 25 -15 17 -16 39 -21 30
-6 -4 5 2 8 11 6 10 -2 21 -4 24 -4 4 -1 10 -8 13 -17 5 -12 1 -14 -16 -8 -20
6 -21 5 -9 -9 7 -9 17 -14 22 -12 4 3 7 -4 6 -15 -2 -25 -6 -25 -23 -2 -11 14
-12 12 -2 -15 7 -17 16 -30 20 -27 4 3 8 0 8 -6 0 -7 -7 -10 -15 -7 -8 4 -17
2 -21 -4 -3 -6 -13 -8 -21 -5 -11 5 -14 1 -10 -14 3 -10 2 -19 -2 -19 -21 3
-47 -15 -46 -32 2 -24 15 -38 15 -16 0 10 5 17 10 17 6 0 10 -7 10 -15 0 -9 9
-15 25 -15 20 0 25 5 25 25 0 17 4 23 14 19 8 -3 12 -12 9 -21 -5 -13 -3 -13
16 -2 11 8 21 18 21 24 0 5 5 3 10 -5 9 -13 12 -13 24 3 7 9 18 17 24 17 6 0
13 8 16 18 4 9 15 28 26 42 l20 25 0 -28 c0 -16 -4 -26 -9 -23 -10 7 -25 -10
-34 -39 -7 -20 -7 -20 8 -1 8 11 15 24 15 28 0 5 9 4 20 -2 17 -9 20 -7 26 15
3 14 9 23 13 20 4 -2 17 3 29 11 19 13 22 25 22 90 0 46 4 74 11 74 6 0 9 -16
8 -38 -2 -21 0 -43 4 -49 4 -6 3 -14 -2 -18 -12 -7 -3 -35 10 -35 5 0 9 9 9
19 0 11 5 23 10 26 6 3 10 -2 10 -12 1 -17 1 -17 11 1 8 13 8 34 -1 77 -7 33
-10 62 -7 65 3 3 12 -23 19 -58 10 -42 20 -64 30 -66 12 -2 15 3 11 20 -3 17
-2 19 5 9 8 -11 11 -10 19 4 5 9 14 17 19 17 5 -1 8 6 6 14 -2 8 7 18 20 23
13 4 22 11 21 15 -6 15 -2 27 7 21 6 -3 10 -1 10 5 0 6 8 10 18 8 11 -2 16 3
14 15 -2 9 2 17 8 17 5 0 20 10 33 23 12 12 24 22 27 22 3 0 20 15 39 33 18
19 39 31 47 28 8 -3 14 -1 14 4 0 6 5 10 11 10 13 0 79 61 79 73 0 4 -4 5 -10
2 -6 -4 -10 5 -10 20 0 22 -2 24 -13 13 -8 -8 -42 -15 -83 -16 -38 -2 -72 -8
-75 -14 -4 -5 -27 -11 -53 -12 -25 0 -46 -5 -46 -9 0 -5 -4 -6 -9 -3 -18 11
-210 16 -216 5 -5 -6 -12 -4 -20 8 -10 14 -17 15 -36 6 -13 -5 -43 -10 -67 -9
-23 1 -42 -3 -42 -9 0 -6 -3 -7 -8 0 -13 18 -43 17 -58 -2 -12 -15 -15 -16
-23 -3 -8 12 -12 9 -20 -13 -6 -15 -22 -32 -37 -37 -21 -8 -24 -13 -15 -24 9
-10 8 -15 -3 -19 -20 -8 -39 18 -31 42 5 16 3 20 -9 15 -9 -3 -13 -10 -10 -15
10 -17 -16 -50 -37 -44 -14 5 -17 2 -13 -8 3 -9 -3 -17 -17 -20 -27 -7 -39 1
-20 12 7 5 11 13 7 19 -3 5 6 13 21 16 17 5 22 11 16 17 -14 14 -52 -3 -66
-31 -8 -16 -22 -25 -40 -27 -24 -2 -31 4 -44 34 l-15 37 -15 -32 c-9 -18 -21
-32 -28 -32 -7 0 -18 -7 -25 -15 -7 -8 -17 -15 -23 -15 -6 0 -8 3 -4 6 3 4 0
13 -8 20 -15 15 -36 19 -34 7 4 -28 -2 -35 -27 -29 -14 4 -23 3 -20 -2 3 -5
-6 -7 -19 -4 -33 6 -32 22 2 22 29 0 24 12 -7 17 -11 2 -20 -2 -20 -8 0 -5 -4
-7 -10 -4 -6 3 -7 -1 -4 -10 5 -13 2 -14 -20 -5 -14 5 -33 7 -41 4 -19 -8 -33
25 -15 36 8 5 9 10 1 14 -5 4 -17 -7 -26 -24 -13 -26 -19 -29 -35 -20 -11 6
-20 9 -20 6 0 -3 -12 6 -27 20 -25 23 -28 24 -34 7 -3 -10 -4 -24 -2 -30 7
-18 -7 -16 -29 4 -17 15 -18 15 -18 -1 0 -10 -6 -16 -12 -13 -20 6 -15 31 7
35 43 7 47 11 31 28 -9 8 -22 13 -29 11 -9 -4 -9 -6 1 -6 6 -1 12 -6 12 -11 0
-7 -6 -7 -19 0 -26 14 -31 13 -25 -5 4 -8 1 -15 -5 -15 -6 0 -8 -7 -5 -15 4
-8 1 -15 -5 -15 -6 0 -11 10 -11 22 0 16 -3 19 -11 11 -8 -8 -18 -8 -35 -1
-19 9 -21 14 -13 29 6 13 6 19 -1 19 -5 0 -10 -4 -10 -10 0 -5 -5 -10 -11 -10
-5 0 -7 5 -4 10 4 6 -7 10 -27 10 -25 0 -29 -3 -18 -10 13 -8 12 -10 -2 -10
-10 0 -18 4 -18 9 0 16 -53 23 -195 26 -77 2 -140 4 -140 5 0 1 -22 3 -50 4
-27 1 -72 6 -100 11 -27 5 -54 8 -59 7 -4 -2 -14 2 -20 8 -7 5 -16 7 -19 3 -4
-3 -12 -1 -19 5 -11 9 -42 15 -111 21 -5 1 -5 6 -2 11 6 10 -34 31 -46 24 -4
-2 -9 3 -13 11 -6 17 -58 19 -91 5z m2035 -100 c0 -5 -2 -10 -4 -10 -3 0 -8 5
-11 10 -3 6 -1 10 4 10 6 0 11 -4 11 -10z m-100 -57 c0 -12 -41 -45 -47 -38
-5 4 -2 10 5 12 9 4 10 9 2 18 -8 10 -4 13 15 13 14 0 25 -2 25 -5z m190 -3
c0 -5 -4 -10 -10 -10 -5 0 -10 5 -10 10 0 6 5 10 10 10 6 0 10 -4 10 -10z
m-1299 -27 c13 -15 12 -15 -8 -4 -24 12 -29 21 -14 21 5 0 15 -7 22 -17z m134
-21 c-3 -3 -11 0 -18 7 -9 10 -8 11 6 5 10 -3 15 -9 12 -12z m65 -33 c0 -14
-16 -11 -29 5 -10 12 -8 13 8 9 12 -3 21 -9 21 -14z m825 11 c3 -6 -4 -10 -17
-10 -18 0 -20 2 -8 10 19 12 18 12 25 0z m-790 -18 c-3 -3 -11 0 -18 7 -9 10
-8 11 6 5 10 -3 15 -9 12 -12z m245 8 c13 -9 13 -10 0 -10 -8 0 -22 5 -30 10
-13 9 -13 10 0 10 8 0 22 -5 30 -10z m139 -24 c-15 -8 -28 -9 -36 -4 -7 6 -16
7 -21 5 -4 -3 -14 -2 -22 3 -10 6 5 9 44 9 52 -1 56 -2 35 -13z m848 -58 c-3
-8 -6 -5 -6 6 -1 11 2 17 5 13 3 -3 4 -12 1 -19z m-1800 -30 c-3 -8 -6 -5 -6
6 -1 11 2 17 5 13 3 -3 4 -12 1 -19z m1603 -3 c0 -7 5 -15 11 -17 6 -2 9 -13
7 -23 -3 -16 -8 -12 -21 19 -20 45 -21 49 -7 41 6 -3 10 -12 10 -20z m220 -6
c0 -5 -4 -9 -10 -9 -5 0 -10 7 -10 16 0 8 5 12 10 9 6 -3 10 -10 10 -16z
m-285 2 c3 -5 1 -12 -5 -16 -5 -3 -10 1 -10 9 0 18 6 21 15 7z m-44 -21 c10 0
16 -7 15 -17 -1 -12 5 -17 16 -15 13 2 16 -4 14 -25 -3 -25 -26 -47 -26 -24 0
6 -6 11 -14 11 -8 0 -16 7 -20 15 -3 8 -14 15 -25 15 -10 0 -21 7 -24 14 -4
10 -1 13 9 9 8 -3 14 -2 13 3 -1 5 -1 16 0 24 1 11 4 11 13 2 7 -7 20 -12 29
-12z m-1266 -40 c3 -5 1 -10 -4 -10 -6 0 -11 5 -11 10 0 6 2 10 4 10 3 0 8 -4
11 -10z m1255 -55 c0 -5 -5 -3 -10 5 -8 12 -10 12 -10 1 0 -8 -2 -12 -5 -9 -3
3 -2 13 1 22 5 14 9 15 15 4 5 -7 9 -17 9 -23z m160 -11 c0 -8 -4 -14 -10 -14
-5 0 -10 9 -10 21 0 11 5 17 10 14 6 -3 10 -13 10 -21z m-1260 -108 c0 -11
-19 -15 -25 -6 -3 5 1 10 9 10 9 0 16 -2 16 -4z"/>
<path d="M9065 6040 c-3 -5 -1 -10 4 -10 6 0 11 5 11 10 0 6 -2 10 -4 10 -3 0
-8 -4 -11 -10z"/>
<path d="M4574 6025 c8 -8 22 -12 30 -9 27 10 18 24 -15 24 -27 0 -29 -2 -15
-15z"/>
<path d="M4630 6019 c0 -5 5 -7 10 -4 6 3 10 8 10 11 0 2 -4 4 -10 4 -5 0 -10
-5 -10 -11z"/>
<path d="M4540 6011 c0 -5 7 -11 14 -14 10 -4 13 -1 9 9 -6 15 -23 19 -23 5z"/>
<path d="M4598 5963 c7 -3 16 -2 19 1 4 3 -2 6 -13 5 -11 0 -14 -3 -6 -6z"/>
<path d="M7255 5933 c0 -13 1 -23 1 -23 1 0 8 10 17 23 13 20 13 23 -2 23 -10
0 -16 -9 -16 -23z"/>
<path d="M7170 5936 c0 -16 18 -31 27 -22 3 3 -2 12 -11 21 -14 14 -16 14 -16
1z"/>
<path d="M7218 5933 c7 -3 16 -2 19 1 4 3 -2 6 -13 5 -11 0 -14 -3 -6 -6z"/>
<path d="M6410 5894 c0 -8 5 -12 10 -9 6 4 8 11 5 16 -9 14 -15 11 -15 -7z"/>
<path d="M6601 5864 c0 -11 3 -14 6 -6 3 7 2 16 -1 19 -3 4 -6 -2 -5 -13z"/>
<path d="M9120 5860 c0 -5 6 -10 14 -10 8 0 18 5 21 10 3 6 -3 10 -14 10 -12
0 -21 -4 -21 -10z"/>
<path d="M4517 5803 c-4 -3 -7 -10 -7 -14 0 -12 38 -30 43 -22 6 11 -28 45
-36 36z"/>
<path d="M7240 5610 c-9 -6 -10 -10 -3 -10 6 0 15 5 18 10 8 12 4 12 -15 0z"/>
<path d="M4556 5595 c4 -8 8 -15 10 -15 2 0 4 7 4 15 0 8 -4 15 -10 15 -5 0
-7 -7 -4 -15z"/>
<path d="M6283 5515 c0 -8 4 -15 9 -15 4 0 8 7 8 15 0 8 -4 15 -8 15 -5 0 -9
-7 -9 -15z"/>
<path d="M6720 5463 c0 -4 5 -15 10 -23 8 -13 10 -13 10 2 0 9 -4 20 -10 23
-5 3 -10 3 -10 -2z"/>
<path d="M7196 5442 c-2 -4 -1 -23 4 -42 l8 -35 1 43 c1 41 -3 50 -13 34z"/>
<path d="M4700 5350 c0 -11 7 -20 15 -20 13 0 14 4 5 20 -6 11 -13 20 -15 20
-3 0 -5 -9 -5 -20z"/>
<path d="M6210 5296 c0 -2 7 -9 15 -16 13 -11 14 -10 9 4 -5 14 -24 23 -24 12z"/>
<path d="M6292 5256 c7 -8 15 -12 17 -11 5 6 -10 25 -20 25 -5 0 -4 -6 3 -14z"/>
<path d="M8990 5225 c-7 -8 -8 -15 -2 -15 5 0 15 7 22 15 7 8 8 15 2 15 -5 0
-15 -7 -22 -15z"/>
<path d="M6660 5170 c0 -5 5 -10 10 -10 6 0 10 5 10 10 0 6 -4 10 -10 10 -5 0
-10 -4 -10 -10z"/>
<path d="M6690 5170 c0 -5 5 -10 10 -10 6 0 10 5 10 10 0 6 -4 10 -10 10 -5 0
-10 -4 -10 -10z"/>
<path d="M4832 5088 c2 -6 10 -14 16 -16 7 -2 10 2 6 12 -7 18 -28 22 -22 4z"/>
<path d="M4907 4990 c5 -20 33 -29 33 -10 0 6 -5 10 -11 10 -5 0 -7 5 -4 10 3
6 0 10 -8 10 -10 0 -13 -7 -10 -20z"/>
<path d="M5160 4720 c0 -5 5 -10 11 -10 5 0 7 5 4 10 -3 6 -8 10 -11 10 -2 0
-4 -4 -4 -10z"/>
<path d="M5456 4545 c25 -19 40 -19 20 0 -8 8 -20 15 -27 15 -7 0 -4 -6 7 -15z"/>
<path d="M6969 11623 c-13 -17 -13 -17 6 -3 11 8 22 16 24 17 2 2 0 3 -6 3 -6
0 -17 -8 -24 -17z"/>
<path d="M5115 10664 c-23 -36 -15 -37 13 -3 13 16 19 29 14 29 -5 0 -17 -12
-27 -26z"/>
<path d="M7767 3860 c-7 -27 9 -35 22 -11 14 26 14 31 -3 31 -7 0 -16 -9 -19
-20z"/>
<path d="M6800 3810 c0 -5 5 -10 10 -10 6 0 10 5 10 10 0 6 -4 10 -10 10 -5 0
-10 -4 -10 -10z"/>
<path d="M7298 3803 c6 -2 18 -2 25 0 6 3 1 5 -13 5 -14 0 -19 -2 -12 -5z"/>
<path d="M7550 3806 c0 -2 7 -7 16 -10 8 -3 12 -2 9 4 -6 10 -25 14 -25 6z"/>
<path d="M7500 3785 c0 -8 5 -15 10 -15 6 0 10 7 10 15 0 8 -4 15 -10 15 -5 0
-10 -7 -10 -15z"/>
<path d="M6406 3735 c4 -8 12 -15 20 -15 20 0 17 7 -6 20 -16 9 -18 8 -14 -5z"/>
<path d="M6250 3696 c0 -9 7 -16 16 -16 17 0 14 22 -4 28 -7 2 -12 -3 -12 -12z"/>
<path d="M9120 3632 c0 -5 7 -13 16 -16 10 -4 14 -1 12 6 -5 15 -28 23 -28 10z"/>
<path d="M6968 3113 c6 -2 18 -2 25 0 6 3 1 5 -13 5 -14 0 -19 -2 -12 -5z"/>
</g>
</svg>
